<?xml version="1.0" standalone="no"?>
<!DOCTYPE svg PUBLIC "-//W3C//DTD SVG 20010904//EN" "http://www.w3.org/TR/2001/REC-SVG-20010904/DTD/svg10.dtd">
<!-- Created using Krita: https://krita.org -->
<svg xmlns="http://www.w3.org/2000/svg" 
    xmlnsXlink="http://www.w3.org/1999/xlink"
    xmlnsKrita="http://krita.org/namespaces/svg/krita"
    xmlnsSodipodi="http://sodipodi.sourceforge.net/DTD/sodipodi-0.dtd"
    width="96pt"
    height="24pt"
    viewBox="0 0 96 24">
<defs/>
<path id="shape0" transform="translate(4.04374095283944, 2.91797638302439)" fill="#1d0444" d="M2.24299 3.39358C2.24258 3.3935 2.24228 3.39341 2.24208 3.3933C2.22296 3.38276 2.20545 3.37549 2.18753 3.36301C2.17726 3.35586 2.16883 3.34837 2.16227 3.33772C2.14763 3.31395 2.1291 3.27864 2.10668 3.23179L1.60668 2.36576C1.57503 2.27754 1.55514 2.20867 1.54701 2.15916C1.53399 2.07981 1.52763 2.00979 1.53509 1.92972C1.54659 1.80634 1.5629 1.69981 1.60081 1.58183C1.65473 1.41402 1.71552 1.2744 1.79603 1.1176C1.89957 0.915966 1.99787 0.747373 2.12549 0.560048C2.19274 0.461335 2.2647 0.386539 2.35062 0.303566C2.411 0.245253 2.46907 0.200787 2.54149 0.158328C2.61461 0.115456 2.68197 0.0847928 2.76347 0.0615058C2.87429 0.0298403 2.9724 0.00967952 3.08742 0.00233966C3.20806 -0.00535784 3.31205 0.00745227 3.43239 0.0188216C3.57865 0.0326398 3.70272 0.0558033 3.84847 0.0742401C3.88184 0.0784618 3.91115 0.0769195 3.94413 0.0835541C3.99416 0.0936187 4.03678 0.104605 4.08483 0.12179C4.15321 0.146246 4.21165 0.168771 4.27608 0.202274C4.41268 0.273303 4.52415 0.344473 4.65833 0.419991C4.70502 0.44627 4.74446 0.470044 4.79281 0.493109C4.8655 0.527778 4.92882 0.555527 5.00384 0.584791C5.03421 0.596637 5.06157 0.603334 5.0934 0.610358C5.14369 0.621453 5.18685 0.632515 5.23819 0.636499C5.30318 0.641542 5.35968 0.643469 5.42444 0.636045C5.47265 0.630517 5.51367 0.618911 5.55828 0.599803C5.61827 0.574106 5.66672 0.54501 5.72113 0.508965C5.76085 0.482656 5.7898 0.453169 5.82613 0.422361C5.84689 0.404763 5.86396 0.388849 5.88422 0.370685C5.90016 0.356388 5.9137 0.343982 5.92958 0.329615C5.94218 0.31822 5.95387 0.309371 5.9656 0.297079C5.99601 0.265202 6.02705 0.241254 6.04984 0.203553C6.06194 0.183544 6.06096 0.161205 6.06187 0.137842C6.06225 0.127967 6.05664 0.120244 6.05343 0.110897C6.05201 0.106763 6.0505 0.103321 6.04865 0.099358C6.04798 0.097914 6.04686 0.095933 6.0453 0.0934151L6.76445 1.33902C6.7607 1.34652 6.75738 1.35199 6.75451 1.35541C6.72836 1.38661 6.7008 1.40921 6.67758 1.44265C6.63807 1.49956 6.60494 1.5496 6.576 1.61255C6.51848 1.73767 6.47398 1.8475 6.43129 1.97842C6.37383 2.15469 6.33359 2.30875 6.29026 2.48902C6.25288 2.64456 6.22879 2.77974 6.20085 2.93725C6.17063 3.10759 6.1495 3.25442 6.12413 3.42555C6.10125 3.57988 6.08444 3.71256 6.06298 3.86709C6.04166 4.02067 6.02336 4.15231 6.00189 4.30588C5.98314 4.44007 5.96751 4.55516 5.94807 4.68926C5.93802 4.75857 5.92916 4.81795 5.91762 4.88703C5.90008 4.99215 5.88414 5.0821 5.86499 5.18694C5.85219 5.25697 5.83976 5.31673 5.82634 5.38665C5.81305 5.45586 5.79991 5.51488 5.78869 5.58446C5.64971 6.44614 5.53043 7.18471 5.39721 8.0473C5.37727 8.17643 5.37054 8.28854 5.35112 8.41775C5.25852 9.03358 5.1893 9.56326 5.07718 10.1758C4.99946 10.6005 4.90588 10.959 4.80899 11.3797C4.78243 11.495 4.75452 11.5927 4.7245 11.7071C4.68901 11.8425 4.6626 11.9598 4.62181 12.0937C4.56215 12.2895 4.51902 12.461 4.43761 12.6489C4.33814 12.8784 4.23369 13.0669 4.10668 13.2824C4.00636 13.4527 3.9114 13.5939 3.78919 13.7492C3.69699 13.8663 3.60308 13.9545 3.49604 14.0582C3.45896 14.0942 3.42181 14.1193 3.37845 14.1474C3.33572 14.175 3.29892 14.2005 3.25078 14.217C3.14361 14.2538 3.04895 14.2782 2.93754 14.2989C2.84929 14.3153 2.77193 14.3216 2.68218 14.3226C2.57509 14.3237 2.48166 14.3262 2.37671 14.3049C2.26768 14.2827 2.17724 14.2473 2.0768 14.1995C1.96802 14.1476 1.87891 14.0932 1.78205 14.0215C1.6637 13.9339 1.56828 13.8501 1.46415 13.746C1.33404 13.6159 1.22863 13.4979 1.11416 13.3538C1.04047 13.2611 0.990302 13.172 0.927886 13.0714C0.895485 13.0191 0.851897 12.9429 0.797124 12.8426L0.195218 11.8001C0.18291 11.7697 0.174014 11.7461 0.168529 11.7293C0.123367 11.5913 0.0706379 11.4764 0.0427042 11.3338C0.0115302 11.1747 -0.0033665 11.0346 0.000640053 10.8725C0.00371411 10.7482 0.0192902 10.6391 0.0627582 10.5226C0.10886 10.399 0.194308 10.231 0.319104 10.0186L0.819104 10.8847C0.694308 11.097 0.60886 11.265 0.562758 11.3886C0.51929 11.5052 0.503714 11.6142 0.50064 11.7385C0.496633 11.9006 0.51153 12.0407 0.542704 12.1998C0.570638 12.3424 0.615064 12.4603 0.668528 12.5954C0.692461 12.6558 0.735326 12.7383 0.797124 12.8426L0.195218 11.8001C0.210907 11.8317 0.224095 11.8553 0.23478 11.8709C0.267829 11.9192 0.295908 11.9612 0.335161 12.0046C0.438162 12.1185 0.525292 12.2181 0.640576 12.3195C0.727018 12.3956 0.80718 12.456 0.909109 12.5095C0.985505 12.5497 1.05994 12.5652 1.14414 12.5841C1.23385 12.6042 1.31262 12.6134 1.40428 12.6206C1.50883 12.6288 1.599 12.631 1.70383 12.628C1.79357 12.6254 1.87099 12.6209 1.95926 12.6044C2.07061 12.5837 2.16517 12.5591 2.27225 12.5222C2.32037 12.5056 2.35716 12.4801 2.3999 12.4525C2.44325 12.4244 2.48046 12.3993 2.51753 12.3634C2.62456 12.2596 2.71836 12.1713 2.81055 12.0541C2.93271 11.8989 3.02779 11.7576 3.12803 11.5874C3.25501 11.3717 3.35919 11.183 3.45868 10.9533C3.54004 10.7656 3.58342 10.5943 3.64312 10.3985C3.68396 10.2646 3.71031 10.1474 3.74581 10.012C3.77583 9.89752 3.80373 9.79991 3.83033 9.68458C3.9273 9.26411 4.02093 8.90571 4.09883 8.48129C4.21118 7.86922 4.2808 7.34 4.37361 6.72466C4.3931 6.59544 4.39975 6.48329 4.41967 6.35414C4.55272 5.49126 4.6718 4.75242 4.81066 3.89046C4.82186 3.82092 4.83509 3.76195 4.84838 3.69278C4.86181 3.62284 4.87273 3.56278 4.887 3.49301C4.90749 3.39277 4.92549 3.30693 4.94769 3.20706C4.96153 3.1448 4.97463 3.09171 4.98999 3.02981C5.01879 2.91372 5.04374 2.81427 5.07388 2.69852C5.10789 2.56794 5.13831 2.45635 5.17324 2.32601C5.20828 2.19533 5.23937 2.08359 5.2738 1.95274C5.31331 1.80263 5.34291 1.67284 5.3845 1.52329C5.42335 1.38359 5.4585 1.26429 5.50359 1.12647C5.55778 0.960823 5.603 0.818147 5.66806 0.656465C5.71698 0.534906 5.76489 0.43274 5.82879 0.318347C5.86093 0.260815 5.89774 0.216824 5.94129 0.167364C5.96725 0.137885 5.99426 0.116829 6.02627 0.0940683C6.02989 0.0914945 6.03623 0.0912768 6.0453 0.0934151L6.76445 1.33902C6.7634 1.33703 6.76252 1.33555 6.76181 1.33457C6.75972 1.33175 6.75787 1.32936 6.75545 1.32683C6.74991 1.32104 6.74697 1.31227 6.73909 1.31083C6.72269 1.30785 6.70536 1.30572 6.69167 1.31524C6.65594 1.34008 6.63573 1.37359 6.6048 1.4042C6.59272 1.41615 6.58136 1.42534 6.56882 1.4368C6.55298 1.45128 6.53946 1.46375 6.52371 1.47832C6.50364 1.49689 6.48721 1.51366 6.46648 1.53148C6.43036 1.56251 6.40067 1.59099 6.36134 1.61784C6.30744 1.65463 6.26053 1.68635 6.20086 1.7128C6.15644 1.73248 6.11494 1.74277 6.06668 1.74843C6.0022 1.75598 5.94596 1.75497 5.88122 1.75025C5.82992 1.74651 5.78673 1.73573 5.73658 1.72437C5.70426 1.71705 5.67681 1.70908 5.64597 1.69699C5.57129 1.66768 5.50799 1.64057 5.43548 1.60624C5.38729 1.58343 5.34779 1.56022 5.30143 1.53388C5.16608 1.45697 5.05091 1.38956 4.91636 1.31127C4.83938 1.26648 4.77414 1.22683 4.69707 1.18221C4.63565 1.14665 4.58261 1.11685 4.52068 1.08218C4.47455 1.05634 4.43847 1.02615 4.38834 1.00933C4.23151 0.956725 4.09531 0.913522 3.93239 0.884847C3.81335 0.863894 3.70806 0.860668 3.58742 0.868365C3.4724 0.875705 3.37429 0.895866 3.26347 0.927531C3.18197 0.950818 3.11461 0.981481 3.04149 1.02435C2.96907 1.06681 2.911 1.11128 2.85062 1.16959C2.7647 1.25256 2.69274 1.32736 2.62549 1.42607C2.49787 1.6134 2.39957 1.78199 2.29603 1.98363C2.21552 2.14043 2.15473 2.28004 2.10081 2.44786C2.0629 2.56583 2.04659 2.67237 2.03509 2.79575C2.02763 2.87581 2.03399 2.94583 2.04701 3.02518C2.05514 3.0747 2.07503 3.14357 2.10668 3.23179L1.60668 2.36576C1.6291 2.41262 1.64763 2.44793 1.66227 2.47169C1.66883 2.48234 1.67726 2.48984 1.68753 2.49698C1.70545 2.50947 1.72296 2.51674 1.74208 2.52728C1.74228 2.52738 1.74258 2.52747 1.74299 2.52755L1.74299 2.52755Z"/>
<path id="shape1" transform="translate(9.60457124938951, 8.48448990198371)" fill="#1d0444" d="M1.52744 1.17749C1.52749 1.17552 1.52749 1.174 1.52744 1.17295C1.52532 1.1255 1.52071 1.08489 1.52118 1.0374C1.52164 0.991425 1.52039 0.95128 1.53009 0.906333C1.54037 0.858637 1.5545 0.81823 1.5777 0.775312C1.61996 0.697171 1.65831 0.630032 1.71602 0.5625C1.79978 0.4645 1.87854 0.385279 1.97952 0.305145C2.05608 0.244384 2.12944 0.200123 2.21976 0.162748C2.3026 0.12847 2.37939 0.109752 2.46876 0.102694C2.59172 0.092982 2.69871 0.0987204 2.82094 0.115265C3.16347 0.161631 3.45241 0.231426 3.79432 0.282124C4.07112 0.323167 4.30841 0.369663 4.58813 0.377302C4.93457 0.386763 5.23261 0.367435 5.57725 0.330814C5.90792 0.295677 6.18811 0.238362 6.51408 0.172648C6.62678 0.149929 6.71957 0.114469 6.82877 0.0785166C6.84776 0.072263 6.86278 0.0632147 6.87954 0.0523216C6.88975 0.0456948 6.89718 0.0380161 6.9052 0.0288703C6.90877 0.0248022 6.91041 0.0201927 6.9122 0.0150872C6.91349 0.0114097 6.91406 0.00797619 6.9139 0.00408197C6.91386 0.0031449 6.9131 0.00204274 6.91161 0.000775461L7.41161 0.866801C7.40931 0.866016 7.40758 0.865827 7.40643 0.866233C7.3988 0.868937 7.39161 0.87077 7.38548 0.876058C7.33078 0.923214 7.26914 0.952734 7.23333 1.01545C7.18552 1.09918 7.18419 1.18767 7.15509 1.27958C7.13112 1.35528 7.11474 1.42205 7.08172 1.49426C7.04899 1.56583 7.01373 1.62418 6.96816 1.68834C6.86262 1.83694 6.75835 1.95407 6.65068 2.10115C6.5266 2.27066 6.42389 2.41866 6.30618 2.59267C6.20921 2.73602 6.13707 2.86625 6.0374 3.00774C5.89362 3.21186 5.76296 3.38154 5.61096 3.57961C5.15668 4.17157 4.7555 4.6699 4.30521 5.2649C4.16586 5.44902 4.065 5.62035 3.92661 5.8052C3.46926 6.4161 3.08661 6.94749 2.60336 7.53811C2.31711 7.88797 2.0419 8.1624 1.73013 8.48972C1.63547 8.58911 1.54875 8.66935 1.44279 8.75659C1.41372 8.78053 1.38219 8.79227 1.34686 8.80528C1.32576 8.81305 1.30587 8.81604 1.2834 8.8153C1.25902 8.8145 1.23829 8.80878 1.2152 8.80094C1.1908 8.79265 1.16947 8.78466 1.14863 8.76952C1.11014 8.74155 1.07766 8.71555 1.04729 8.67893C1.02098 8.64721 0.988812 8.59789 0.95079 8.53098L0.0352259 6.94517C0.0176559 6.88815 0.00783393 6.84376 0.00575994 6.812C-0.000540569 6.71552 -0.00419809 6.63163 0.00848982 6.53578C0.024996 6.41109 0.0489485 6.30482 0.0886974 6.18549C0.121617 6.08666 0.163146 6.00635 0.214949 5.91598C0.267943 5.82352 0.317349 5.74541 0.387123 5.66487C0.449663 5.59267 0.516086 5.5428 0.590303 5.48268C0.685233 5.40577 0.769069 5.34268 0.869928 5.27374C0.923086 5.2374 0.971239 5.20955 1.02961 5.18237C1.08319 5.15743 1.13118 5.13951 1.18857 5.12538C1.26169 5.10737 1.32564 5.09086 1.40094 5.09091C1.46105 5.09096 1.51264 5.10511 1.56912 5.12566C1.61738 5.14322 1.65183 5.17316 1.69653 5.19846C1.77412 5.24238 1.84413 5.27426 1.91849 5.32343C2.00803 5.38265 2.07791 5.44316 2.16385 5.50749C2.24381 5.56735 2.31491 5.61535 2.39249 5.67826C2.59992 5.8465 2.78249 5.9857 2.97792 6.16775C3.11425 6.29474 3.21642 6.41861 3.33844 6.55942C3.37702 6.60393 3.40041 6.64963 3.43612 6.69648C3.55271 6.84942 3.64639 6.98587 3.77353 7.13016C3.84614 7.21257 3.91959 7.27301 4.00498 7.34208C4.0519 7.38004 4.09555 7.40948 4.15027 7.43493C4.21629 7.46563 4.27798 7.47939 4.34741 7.50131C4.40349 7.51901 4.45179 7.53358 4.50877 7.54811C4.56657 7.56284 4.61571 7.58027 4.67519 7.58485C4.75387 7.59091 4.82215 7.5871 4.90057 7.5783C4.95514 7.57218 5.00321 7.56492 5.0533 7.54244C5.20697 7.47348 5.32979 7.39615 5.4793 7.31859C5.54738 7.28328 5.60655 7.2546 5.67499 7.21998C5.69136 7.2117 5.71469 7.19977 5.74498 7.18419L6.24498 8.05021C6.21469 8.0658 6.19136 8.07773 6.17499 8.08601C6.10655 8.12063 6.04738 8.14931 5.9793 8.18462C5.82979 8.26217 5.70697 8.33951 5.5533 8.40847C5.50321 8.43095 5.45514 8.43821 5.40057 8.44433C5.32215 8.45312 5.25387 8.45694 5.17519 8.45088C5.11571 8.44629 5.06657 8.42886 5.00877 8.41413C4.95179 8.39961 4.90349 8.38504 4.84741 8.36733C4.77798 8.34541 4.71629 8.33165 4.65027 8.30095C4.59555 8.27551 4.5519 8.24606 4.50498 8.20811C4.41959 8.13903 4.34614 8.0786 4.27353 7.99619C4.14639 7.85189 4.05271 7.71545 3.93612 7.5625C3.90041 7.51566 3.87702 7.46996 3.83844 7.42544C3.71642 7.28464 3.61425 7.16077 3.47792 7.03377C3.28249 6.85173 3.10149 6.71058 2.89249 6.54429C2.82101 6.48742 2.7561 6.44283 2.67725 6.39673C2.61345 6.35943 2.55411 6.33596 2.48622 6.30677C2.41954 6.27811 2.36343 6.24901 2.29298 6.23155C2.26528 6.22468 2.24024 6.23702 2.21174 6.23872C2.16121 6.24172 2.11752 6.23906 2.06724 6.24497C1.99262 6.25375 1.92838 6.26218 1.85554 6.2806C1.7983 6.29507 1.75059 6.31349 1.69713 6.33855C1.63882 6.36587 1.58774 6.38965 1.53734 6.42973C1.43988 6.50725 1.35533 6.5755 1.27724 6.67249C1.20921 6.757 1.17373 6.84556 1.12466 6.94233C1.07126 7.04764 1.02494 7.13828 0.984752 7.24931C0.943894 7.36219 0.913834 7.46167 0.893842 7.58004C0.86895 7.72742 0.859255 7.85605 0.857036 8.00551C0.85534 8.11973 0.862628 8.21843 0.882694 8.33089C0.891356 8.37944 0.914055 8.44614 0.95079 8.53098L0.0352259 6.94517C0.0549892 6.97806 0.0722461 7.00155 0.0869967 7.01565C0.112452 7.03999 0.139164 7.05532 0.16938 7.07341C0.191474 7.08663 0.211533 7.09652 0.235921 7.10478C0.258991 7.11259 0.279699 7.11822 0.304043 7.11901C0.326524 7.11974 0.346408 7.11677 0.36753 7.10904C0.402895 7.09609 0.434448 7.08443 0.463609 7.0606C0.569795 6.97382 0.656998 6.89423 0.751727 6.79507C1.06391 6.4683 1.33899 6.1939 1.6255 5.8444C2.10909 5.25447 2.49234 4.72385 2.94993 4.11353C3.08846 3.92876 3.18903 3.75718 3.32843 3.57306C3.77877 2.97822 4.16443 2.46774 4.63454 1.8884C4.78563 1.7022 4.93513 1.55974 5.10194 1.38747C5.21258 1.27321 5.31419 1.18204 5.42704 1.06995C5.56705 0.930881 5.68204 0.806611 5.82436 0.669904C5.94871 0.550451 6.05549 0.447774 6.18872 0.338294C6.24158 0.294849 6.29191 0.262431 6.35432 0.234382C6.41069 0.209052 6.46421 0.200905 6.52451 0.187389C6.59699 0.171142 6.66666 0.182187 6.73333 0.149429C6.79815 0.11758 6.83078 0.0571889 6.88548 0.0100324C6.89161 0.00474423 6.8988 0.002912 6.90643 0.00020783C6.90758 -0.000198358 6.90931 -9.14777e-06 6.91161 0.000775461L7.41161 0.866801C7.4131 0.868068 7.41386 0.86917 7.4139 0.870107C7.41406 0.874002 7.41349 0.877435 7.4122 0.881113C7.41041 0.886218 7.40877 0.890828 7.4052 0.894896C7.39718 0.904042 7.38975 0.91172 7.37954 0.918347C7.36277 0.92924 7.34776 0.938288 7.32877 0.944542C7.21957 0.980494 7.12678 1.01595 7.01408 1.03867C6.68811 1.10439 6.40792 1.1617 6.07725 1.19684C5.73261 1.23346 5.43457 1.25279 5.08812 1.24333C4.80841 1.23569 4.57112 1.18919 4.29432 1.14815C3.95241 1.09745 3.66347 1.02766 3.32094 0.981291C3.19871 0.964746 3.09172 0.959007 2.96876 0.968719C2.87939 0.975778 2.8026 0.994496 2.71976 1.02877C2.62944 1.06615 2.55608 1.11041 2.47952 1.17117C2.37854 1.2513 2.29978 1.33053 2.21602 1.42853C2.15831 1.49606 2.11996 1.5632 2.0777 1.64134C2.05449 1.68426 2.04037 1.72466 2.03009 1.77236C2.02039 1.81731 2.02164 1.85745 2.02118 1.90343C2.02071 1.95092 2.02532 1.99153 2.02744 2.03897C2.02749 2.04003 2.02749 2.04154 2.02744 2.04351L2.02744 2.04351Z"/>
<path id="shape2" transform="translate(17.4249375094952, 8.68113684441675)" fill="#1d0444" d="M5.82143 1.73555C5.82077 1.73497 5.82026 1.73451 5.81991 1.73418C5.81417 1.72882 5.80935 1.72412 5.80353 1.71884C5.79097 1.70743 5.77974 1.69816 5.76741 1.6865C5.75425 1.67405 5.7415 1.66456 5.73072 1.65C5.72702 1.645 5.72405 1.63663 5.72182 1.62488L5.22182 0.758852C5.22054 0.746022 5.21971 0.736142 5.21933 0.729212C5.21839 0.712094 5.22081 0.69709 5.21753 0.680264C5.20976 0.640455 5.20207 0.606234 5.1879 0.568226C5.17519 0.534089 5.15352 0.486773 5.1229 0.426278L5.6229 1.2923C5.58889 1.24197 5.56055 1.20513 5.53789 1.18179C5.50301 1.14588 5.46914 1.11859 5.4274 1.09096C5.3786 1.05865 5.33408 1.03456 5.28037 1.01132C5.2251 0.987399 5.17591 0.970167 5.11721 0.956706C5.02127 0.934704 4.93706 0.925698 4.83985 0.910288C4.81895 0.906975 4.8008 0.90583 4.77981 0.903223C4.71666 0.895381 4.6628 0.886174 4.59942 0.880434C4.51977 0.873219 4.45131 0.864596 4.37135 0.866226C4.28883 0.867909 4.2187 0.880308 4.13672 0.889868C4.11291 0.892645 4.09267 0.896503 4.06921 0.90146C3.94556 0.927592 3.83538 0.935841 3.71648 0.978681C3.67786 0.992596 3.66021 1.03016 3.63125 1.05926C3.59841 1.09226 3.569 1.11963 3.53997 1.15604C3.50661 1.19787 3.48099 1.2362 3.45354 1.28212C3.43358 1.31553 3.42969 1.35212 3.40487 1.3821C3.36405 1.4314 3.31827 1.46361 3.26923 1.50474C3.15697 1.59887 3.05322 1.67062 2.94416 1.76844C2.84071 1.86123 2.75067 1.94093 2.66284 2.04862C2.56151 2.17288 2.49362 2.29369 2.4062 2.42809C2.27913 2.62345 2.16584 2.78844 2.05008 2.9907C1.94773 3.16953 1.87079 3.32896 1.78374 3.51571C1.69916 3.69716 1.63098 3.85494 1.55998 4.04212C1.4469 4.34025 1.3522 4.59701 1.25806 4.90166C1.18406 5.14114 1.12614 5.34896 1.08003 5.59535C1.03074 5.85867 1.00686 6.08789 0.98604 6.35498C0.967427 6.59381 0.962375 6.79967 0.967501 7.03918C0.971206 7.21232 0.992693 7.35985 1.01123 7.53204C1.01745 7.58985 1.02529 7.63926 1.0382 7.69595C1.06362 7.80752 1.08934 7.90226 1.12063 8.01233C1.13039 8.04666 1.14096 8.07556 1.15539 8.10821C1.17236 8.1466 1.19871 8.20048 1.23444 8.26982L0.266527 6.59335C0.279864 6.6154 0.290688 6.63196 0.299002 6.64303C0.348136 6.7085 0.388303 6.76636 0.442445 6.82774C0.482919 6.87363 0.521017 6.91031 0.568629 6.94875C0.604473 6.97768 0.635863 7.00526 0.679739 7.01929C0.753951 7.04303 0.821669 7.05196 0.89954 7.05458C0.993108 7.05772 1.07275 7.03415 1.16636 7.03566C1.23703 7.0368 1.29688 7.05029 1.36657 7.0621C1.43732 7.07409 1.49645 7.09248 1.56733 7.1036C1.62936 7.11334 1.68501 7.1372 1.74583 7.1216C1.90843 7.0799 2.04067 7.01794 2.19118 6.9436C2.4325 6.82442 2.63091 6.70575 2.86317 6.56976C2.9646 6.51037 3.04971 6.45581 3.14404 6.38569C3.26996 6.29208 3.37608 6.20872 3.49162 6.10257C3.6118 5.99217 3.71402 5.89511 3.81638 5.76801C3.98634 5.55699 4.12654 5.3703 4.26769 5.13901C4.50779 4.74559 4.69766 4.39822 4.90389 3.98603C5.01422 3.76551 5.08323 3.56454 5.17078 3.33403C5.2863 3.02989 5.38424 2.76852 5.48393 2.45884C5.5526 2.24551 5.59252 2.05706 5.65144 1.84083C5.67056 1.77064 5.69155 1.71162 5.70692 1.6405C5.73452 1.51274 5.76065 1.40316 5.77411 1.27314C5.79017 1.118 5.78886 0.983781 5.79104 0.82782C5.79156 0.79012 5.78426 0.758114 5.78182 0.720489C5.77683 0.643452 5.77592 0.577205 5.76979 0.500249C5.76802 0.477901 5.76547 0.458608 5.75926 0.437069C5.75716 0.429827 5.75189 0.42044 5.74342 0.40891L6.24342 1.27493C6.23516 1.26604 6.22821 1.26004 6.22259 1.25693C6.21454 1.25249 6.20658 1.24977 6.1974 1.24952C6.1866 1.24922 6.17647 1.25 6.16711 1.25538C6.14297 1.26926 6.11587 1.27837 6.10367 1.3034C6.06835 1.37589 6.05232 1.44469 6.03634 1.52372C6.02881 1.56099 6.03975 1.59443 6.03717 1.63237C6.03236 1.70295 6.03299 1.76482 6.01526 1.83332C5.98459 1.95186 5.94208 2.04864 5.89972 2.16352C5.853 2.29022 5.8093 2.39745 5.76077 2.52346C5.69873 2.68456 5.64342 2.82184 5.5838 2.98384C5.51914 3.15954 5.46599 3.311 5.4057 3.48826C5.33429 3.69818 5.26973 3.87715 5.20754 4.08998C5.12957 4.3568 5.06633 4.58683 5.00543 4.85805C4.93542 5.16981 4.87414 5.43772 4.83373 5.75467C4.79398 6.06652 4.79395 6.33718 4.77685 6.6511C4.77255 6.72999 4.77377 6.79779 4.77261 6.87679C4.77122 6.97135 4.77067 7.05241 4.76955 7.14698C4.76905 7.18874 4.76727 7.22453 4.76799 7.26629C4.77113 7.44712 4.7668 7.60254 4.78058 7.78288C4.78817 7.88223 4.8069 7.96626 4.82889 8.06344C4.84803 8.148 4.86768 8.22009 4.89792 8.30134C4.92295 8.36862 4.95282 8.42292 4.98626 8.48644C4.99662 8.50612 5.01374 8.53287 5.03763 8.56671L4.0581 6.87011C4.1093 6.93719 4.14989 6.98778 4.17986 7.02188C4.20382 7.04912 4.2255 7.07204 4.25463 7.09368C4.27557 7.10923 4.2963 7.11955 4.32132 7.12696C4.35329 7.13642 4.38216 7.14172 4.41549 7.14128C4.45609 7.14074 4.49115 7.13522 4.53022 7.12418C4.6112 7.1013 4.67792 7.0731 4.75715 7.04476C4.83788 7.01587 4.906 6.98805 4.98726 6.96066C5.04491 6.94123 5.09368 6.91996 5.15387 6.91106C5.20339 6.90374 5.24795 6.90412 5.29684 6.91489C5.33933 6.92425 5.37116 6.94687 5.40953 6.96738C5.46184 6.99533 5.50812 7.08868 5.55563 7.05319C5.68972 6.95304 5.84552 6.77168 6.02304 6.50913L6.52304 7.37515C6.29772 7.59445 6.14192 7.77581 6.05563 7.91921C6.01925 7.97969 6.07069 8.04948 6.07495 8.11992C6.07803 8.17078 6.08519 8.21527 6.07661 8.26549C6.06708 8.32119 6.0518 8.36894 6.02398 8.41813C5.99273 8.47338 5.95461 8.51399 5.91033 8.55947C5.85014 8.62129 5.79878 8.6766 5.72648 8.72369C5.65682 8.76906 5.58818 8.79342 5.50958 8.82048C5.47123 8.83369 5.43555 8.8372 5.39499 8.83782C5.3617 8.83833 5.33286 8.83308 5.30092 8.82368C5.27593 8.81632 5.25521 8.80604 5.23429 8.7905C5.20515 8.76886 5.18346 8.74591 5.15949 8.71864C5.12949 8.68451 5.08887 8.63386 5.03763 8.56671L4.0581 6.87011C4.03421 6.83628 4.01709 6.80952 4.00673 6.78985C3.97332 6.72638 3.94347 6.67213 3.91847 6.6049C3.88829 6.52374 3.8687 6.45174 3.84961 6.36728C3.82764 6.27011 3.80888 6.18611 3.80134 6.08678C3.78767 5.90669 3.79215 5.75148 3.78916 5.5709C3.78847 5.52921 3.79029 5.49346 3.79082 5.45176C3.79201 5.35733 3.79265 5.27637 3.79408 5.18194C3.79528 5.10295 3.79401 5.03514 3.79833 4.95626C3.8155 4.64249 3.81298 4.37161 3.85547 4.06026C3.89776 3.75033 3.96114 3.4885 4.03995 3.1858C4.10653 2.93003 4.18177 2.7157 4.27032 2.46669C4.34078 2.26857 4.40945 2.10163 4.49396 1.90909C4.56297 1.75188 4.63116 1.62124 4.70866 1.46804C4.78026 1.32648 4.84396 1.20631 4.91989 1.06702C4.97818 0.960089 5.02706 0.867627 5.09208 0.764645C5.14658 0.678316 5.18751 0.597729 5.26094 0.526802C5.2917 0.497097 5.33497 0.49598 5.37719 0.489253C5.40045 0.485548 5.42099 0.502903 5.44394 0.497646C5.50219 0.484306 5.54991 0.463465 5.60367 0.437379C5.62873 0.425222 5.64297 0.403237 5.66711 0.389356C5.67647 0.383975 5.6866 0.38319 5.6974 0.383492C5.70658 0.383749 5.71454 0.386466 5.72259 0.390909C5.72821 0.394015 5.73516 0.400015 5.74342 0.40891L6.24342 1.27493C6.25189 1.28647 6.25716 1.29585 6.25926 1.30309C6.26547 1.32463 6.26802 1.34393 6.26979 1.36627C6.27592 1.44323 6.27683 1.50948 6.28182 1.58651C6.28426 1.62414 6.29156 1.65615 6.29104 1.69385C6.28886 1.84981 6.29017 1.98402 6.27411 2.13917C6.26065 2.26918 6.23452 2.37877 6.20692 2.50653C6.19155 2.57764 6.17056 2.63666 6.15144 2.70686C6.09252 2.92308 6.0526 3.11154 5.98393 3.32486C5.88424 3.63455 5.78629 3.89592 5.67078 4.20005C5.58323 4.43057 5.51422 4.63154 5.40389 4.85206C5.19766 5.26424 5.00779 5.61161 4.76769 6.00504C4.62654 6.23632 4.48634 6.42301 4.31638 6.63404C4.21402 6.76113 4.1118 6.85819 3.99162 6.9686C3.87608 7.07475 3.76996 7.1581 3.64404 7.25171C3.54971 7.32183 3.4646 7.3764 3.36317 7.43579C3.13091 7.57178 2.9325 7.69045 2.69118 7.80963C2.54067 7.88396 2.39659 7.9138 2.24583 7.98762C2.19934 8.01039 2.16982 8.04684 2.13281 8.08304C2.09248 8.12249 2.06555 8.1636 2.02541 8.20324C1.98476 8.24337 1.95234 8.28278 1.9024 8.31053C1.8279 8.35192 1.75551 8.36964 1.67509 8.39787C1.61657 8.41842 1.56538 8.43309 1.50565 8.44981C1.48402 8.45586 1.46523 8.4643 1.44281 8.46288C1.41768 8.46128 1.39365 8.45737 1.37412 8.44146C1.33008 8.40556 1.30279 8.3636 1.26693 8.31953C1.25818 8.30878 1.24735 8.29221 1.23444 8.26982L0.266527 6.59335C0.230508 6.52351 0.203937 6.46925 0.186813 6.43059C0.172279 6.39777 0.161588 6.36873 0.151766 6.33421C0.120474 6.22421 0.0947598 6.12952 0.0694405 6.018C0.0566402 5.96162 0.048967 5.91245 0.0429598 5.85495C0.025102 5.684 0.00426236 5.5375 0.00129203 5.36565C-0.00281785 5.12788 0.00249422 4.92348 0.022764 4.68653C0.0452835 4.42329 0.0716557 4.19749 0.123388 3.9384C0.171802 3.69594 0.229474 3.49095 0.308281 3.25659C0.407076 2.9628 0.504764 2.71502 0.630106 2.43153C0.706343 2.2591 0.787743 2.11861 0.883287 1.95608C0.981641 1.78877 1.07356 1.64981 1.18362 1.48996C1.3117 1.30395 1.42378 1.14582 1.56339 0.968305C1.65747 0.848673 1.74081 0.7472 1.85063 0.641832C1.94859 0.547847 2.04394 0.479543 2.15467 0.401005C2.27279 0.317222 2.3766 0.24822 2.50362 0.178665C2.55935 0.148148 2.61169 0.127955 2.67419 0.116521C2.71304 0.109412 2.74709 0.125694 2.78657 0.126898C2.84185 0.128583 2.88931 0.127098 2.94457 0.124764C2.99404 0.122674 3.03619 0.116467 3.08566 0.114264C3.1314 0.112227 3.17128 0.120023 3.21648 0.112655C3.34121 0.0923211 3.44556 0.0615662 3.56921 0.0354345C3.59267 0.0304773 3.61291 0.0266192 3.63672 0.0238422C3.7187 0.0142822 3.78883 0.0018831 3.87135 0.000200721C3.95131 -0.00142964 4.01977 0.00719369 4.09942 0.0144085C4.1628 0.0201489 4.21666 0.0293556 4.27981 0.0371973C4.30081 0.0398046 4.31895 0.0409499 4.33985 0.0442626C4.43706 0.0596723 4.52127 0.0686782 4.61721 0.0906804C4.67591 0.104142 4.7251 0.121373 4.78037 0.145293C4.83408 0.168539 4.8786 0.192628 4.9274 0.224934C4.96914 0.252568 5.00301 0.27985 5.03789 0.315767C5.06055 0.339107 5.08889 0.375944 5.1229 0.426278L5.6229 1.2923C5.65352 1.3528 5.67519 1.40011 5.6879 1.43425C5.70207 1.47226 5.70976 1.50648 5.71753 1.54629C5.72081 1.56312 5.71839 1.57812 5.71933 1.59524C5.71971 1.60217 5.72054 1.61205 5.72182 1.62488L5.22182 0.758852C5.22406 0.7706 5.22702 0.778974 5.23072 0.783974C5.2415 0.798535 5.25425 0.808027 5.26741 0.820472C5.27974 0.83213 5.29097 0.841406 5.30353 0.852816C5.30935 0.858097 5.31417 0.862798 5.31991 0.868159C5.32026 0.868484 5.32077 0.86894 5.32143 0.869526L5.32143 0.869526Z"/>
<path id="shape3" transform="translate(30.9606453744638, 3.08267826215791)" fill="#1d0444" d="M6.56512 1.5168C6.56504 1.51642 6.56494 1.51615 6.56482 1.51598C6.55289 1.49996 6.54325 1.48577 6.53054 1.47036C6.51402 1.45033 6.49927 1.43363 6.48138 1.41481C6.38138 1.30962 6.30041 1.21454 6.19376 1.1161C6.15069 1.07634 6.10729 1.04902 6.05545 1.02168C5.98193 0.982903 5.91555 0.955792 5.8372 0.92805C5.77847 0.907254 5.72629 0.893933 5.66488 0.883387C5.59952 0.87216 5.54251 0.866305 5.47619 0.866045C5.39903 0.865742 5.33237 0.868887 5.25629 0.881785C5.15623 0.898749 5.0718 0.921466 4.97472 0.951062C4.86571 0.984295 4.77219 1.0143 4.66826 1.06106C4.54181 1.11795 4.43643 1.1741 4.31813 1.24644C4.22308 1.30456 4.13602 1.35133 4.06012 1.43289C4.00776 1.48917 3.99212 1.55865 3.96186 1.62931C3.94344 1.67233 3.93368 1.71158 3.92143 1.75675C3.9078 1.80704 3.90739 1.85345 3.88798 1.90181C3.86168 1.96734 3.82727 2.01809 3.79198 2.07926C3.76669 2.12311 3.74252 2.15921 3.715 2.20169C3.67005 2.27107 3.62934 2.32912 3.58493 2.39886C3.51191 2.51352 3.45091 2.61281 3.37953 2.72851C3.29866 2.85957 3.22719 2.97065 3.14991 3.10387C3.07237 3.23754 3.01222 3.35568 2.93732 3.49084C2.81309 3.71502 2.69681 3.90194 2.58097 4.13056C2.31766 4.65028 2.09816 5.09906 1.85439 5.62822C1.77068 5.80995 1.70966 5.97086 1.64586 6.1605C1.49418 6.61141 1.36367 6.99833 1.23905 7.45746C1.175 7.69345 1.14097 7.90138 1.10762 8.14361C1.05343 8.53723 1.00965 8.87585 0.989155 9.27265C0.970402 9.63573 0.977828 9.94825 0.995655 10.3114C1.01051 10.6139 1.04846 10.8715 1.08243 11.1725C1.09069 11.2458 1.10198 11.3081 1.11628 11.3805C1.18794 11.7428 1.24111 12.0553 1.32801 12.4142C1.40125 12.7168 1.47918 12.9724 1.5735 13.2691C1.60244 13.3601 1.63442 13.4364 1.67974 13.5205C1.70657 13.5703 1.75225 13.6369 1.81676 13.7204L0.837652 12.0246C0.872735 12.0698 0.900389 12.1041 0.920613 12.1273C0.972113 12.1866 1.01259 12.2413 1.07138 12.2933C1.12057 12.3369 1.1686 12.3681 1.22692 12.3983C1.3498 12.4619 1.46077 12.5048 1.58743 12.5604C1.60829 12.5696 1.62716 12.575 1.64831 12.5834C1.67988 12.596 1.70799 12.6047 1.73806 12.6205C1.77835 12.6418 1.80706 12.6706 1.84869 12.6891C1.89885 12.7113 1.9436 12.7316 1.9983 12.736C2.08339 12.7428 2.15673 12.7286 2.24172 12.7207C2.34685 12.7108 2.43665 12.6992 2.54131 12.6852C2.64574 12.6712 2.73421 12.6513 2.83905 12.6409C2.92142 12.6327 2.99263 12.6336 3.07538 12.632C3.13629 12.6307 3.18879 12.6383 3.24944 12.6325C3.30259 12.6275 3.35068 12.6246 3.39875 12.6014C3.4814 12.5614 3.54864 12.517 3.61651 12.4552C3.8066 12.2822 3.96765 12.1299 4.13292 11.933C4.28805 11.7483 4.4011 11.5734 4.52871 11.3686C4.6925 11.1058 4.81651 10.8707 4.96454 10.5987C5.05174 10.4384 5.12355 10.2993 5.20064 10.134C5.37914 9.75113 5.53363 9.42333 5.69461 9.03278C5.75937 8.87565 5.79047 8.73205 5.84484 8.57102C5.9277 8.32563 6.01295 8.11994 6.08669 7.87165C6.22933 7.39141 6.33096 6.97391 6.46277 6.49058C6.48481 6.40975 6.50799 6.34154 6.52628 6.25977C6.60227 5.92007 6.68155 5.63115 6.73207 5.28674C6.78788 4.90636 6.81925 4.57696 6.82954 4.19265C6.84156 3.74356 6.82726 3.35767 6.79572 2.90953C6.77721 2.64664 6.74274 2.42201 6.68677 2.16448C6.64803 1.98623 6.59662 1.83691 6.52603 1.66871C6.49055 1.58417 6.42676 1.46978 6.33467 1.32554L6.83467 2.19156C6.72984 2.05547 6.6424 1.95779 6.57232 1.89853C6.42351 1.77268 6.28361 1.67831 6.11408 1.58216C5.99844 1.51658 5.89224 1.46687 5.76224 1.43908C5.59738 1.40385 5.44875 1.38069 5.28183 1.40431C5.13749 1.42473 4.93879 1.4871 4.68573 1.59141L4.18573 0.725387C4.43879 0.621074 4.63749 0.558705 4.78183 0.53828C4.94875 0.514661 5.09738 0.537827 5.26224 0.573058C5.39224 0.60084 5.49844 0.650552 5.61408 0.716134C5.78361 0.812284 5.92351 0.906651 6.07232 1.0325C6.1424 1.09176 6.22984 1.18944 6.33467 1.32554L6.83467 2.19156C6.92676 2.33581 6.99055 2.45019 7.02603 2.53473C7.09662 2.70293 7.14803 2.85225 7.18677 3.0305C7.24274 3.28803 7.27721 3.51267 7.29572 3.77556C7.32726 4.2237 7.34156 4.60959 7.32954 5.05868C7.31925 5.44299 7.28788 5.77239 7.23207 6.15276C7.18155 6.49717 7.10227 6.7861 7.02628 7.1258C7.00799 7.20756 6.98481 7.27577 6.96277 7.35661C6.83096 7.83993 6.72933 8.25744 6.58669 8.73768C6.51295 8.98596 6.4277 9.19166 6.34484 9.43705C6.29047 9.59807 6.25937 9.74168 6.1946 9.89881C6.03363 10.2894 5.87914 10.6172 5.70064 11C5.62355 11.1654 5.55174 11.3045 5.46454 11.4647C5.31651 11.7367 5.1925 11.9719 5.02871 12.2347C4.9011 12.4394 4.78805 12.6143 4.63292 12.7991C4.46765 12.9959 4.30089 13.1422 4.11651 13.3213C4.0496 13.3863 3.98152 13.4304 3.91534 13.4961C3.87671 13.5345 3.8496 13.5731 3.81818 13.6176C3.7838 13.6663 3.7636 13.7142 3.72765 13.7617C3.68092 13.8235 3.64442 13.8821 3.58266 13.9288C3.50442 13.988 3.42354 14.0179 3.33448 14.059C3.24549 14.1001 3.16646 14.1291 3.07462 14.1633C3.00153 14.1905 2.93657 14.2073 2.86343 14.2344C2.82841 14.2474 2.80009 14.2627 2.76589 14.2777C2.74603 14.2864 2.73067 14.3019 2.70898 14.3022C2.67945 14.3027 2.65579 14.2887 2.62766 14.2797C2.60597 14.2728 2.58763 14.2659 2.56678 14.2567C2.44008 14.201 2.32909 14.158 2.20617 14.0944C2.14787 14.0642 2.09983 14.033 2.05067 13.9895C1.99182 13.9375 1.95132 13.8826 1.89977 13.8233C1.87954 13.8 1.85186 13.7657 1.81676 13.7204L0.837652 12.0246C0.773064 11.9409 0.727335 11.8742 0.700466 11.8244C0.655178 11.7403 0.623247 11.6641 0.594334 11.5731C0.500066 11.2766 0.422154 11.021 0.348978 10.7185C0.262194 10.3598 0.209175 10.0475 0.137648 9.68543C0.123361 9.61311 0.112076 9.5508 0.103825 9.47755C0.0699302 9.17665 0.0320359 8.91919 0.017266 8.61675C-0.000457863 8.25382 -0.00777941 7.94146 0.0110877 7.57859C0.031708 7.182 0.0756507 6.84358 0.129914 6.45018C0.163324 6.20796 0.19724 6.00001 0.261372 5.76407C0.386092 5.30521 0.516899 4.91861 0.66869 4.46798C0.732558 4.27838 0.793568 4.11748 0.877236 3.93573C1.12093 3.40639 1.3319 2.95307 1.60346 2.43747C1.71927 2.2176 1.8415 2.04173 1.98255 1.83713C2.0631 1.7203 2.14358 1.62836 2.2357 1.52042C2.32788 1.41241 2.40898 1.32139 2.50886 1.22047C2.5953 1.13312 2.67718 1.06636 2.76751 0.983045C2.82327 0.931626 2.87054 0.887001 2.92625 0.835525C2.95991 0.804412 2.98684 0.775454 3.02284 0.747078C3.07027 0.709696 3.10857 0.671707 3.16412 0.648034C3.20031 0.63261 3.23709 0.643642 3.27617 0.639123C3.313 0.634866 3.34492 0.632118 3.38085 0.622976C3.44457 0.606762 3.50263 0.598759 3.56012 0.566866C3.65755 0.512821 3.72308 0.438531 3.81813 0.380411C3.93644 0.308078 4.04181 0.25192 4.16827 0.195032C4.27219 0.148279 4.36571 0.118269 4.47472 0.0850364C4.5718 0.0554403 4.65623 0.0327231 4.75629 0.0157592C4.83237 0.0028616 4.89903 -0.000283137 4.97619 1.94117e-05C5.04251 0.000279451 5.09952 0.00613502 5.16488 0.0173613C5.22629 0.0279079 5.27847 0.0412284 5.3372 0.0620241C5.41555 0.0897669 5.48193 0.116878 5.55545 0.155652C5.60729 0.182995 5.65069 0.210318 5.69376 0.250072C5.80041 0.34851 5.88138 0.443594 5.98138 0.548784C5.99927 0.567601 6.01402 0.584306 6.03054 0.604336C6.04325 0.619745 6.05289 0.633939 6.06482 0.649959C6.06494 0.650122 6.06504 0.650396 6.06512 0.650779L6.06512 0.650779Z"/>
<path id="shape4" transform="translate(41.9851126176188, 9.60809675546519)" fill="#1d0444" d="M-3.44169e-15 -7.77156e-16L0.5 0.866025C0.166667 0.288675 -3.44169e-15 -7.77156e-16 -3.44169e-15 -7.77156e-16C-3.44169e-15 -7.77156e-16 0.166667 0.288675 0.5 0.866025L-3.44169e-15 -7.77156e-16L0.5 0.866025L-3.44169e-15 -7.77156e-16C0.333333 0.57735 0.5 0.866025 0.5 0.866025C0.5 0.866025 0.333333 0.57735 -3.44169e-15 -7.77156e-16L0.5 0.866025"/>
<path id="shape5" transform="translate(37.8351150375329, 9.08913099895223)" fill="#1d0444" d="M4.95996 2.5364C4.95955 2.53631 4.95924 2.53622 4.95905 2.53613C4.95723 2.53524 4.95515 2.53507 4.95393 2.53346C4.95211 2.53103 4.95021 2.52713 4.94823 2.52176L4.44823 1.65573C4.44452 1.64054 4.44279 1.62878 4.44305 1.62047C4.44614 1.52311 4.45849 1.43998 4.45816 1.34257C4.45768 1.203 4.46006 1.0824 4.44075 0.94417C4.42765 0.850374 4.4026 0.771484 4.3662 0.684054C4.34332 0.629102 4.30129 0.555179 4.24011 0.462285L4.74011 1.32831C4.67047 1.24704 4.61334 1.18844 4.56872 1.15251C4.48829 1.08775 4.41167 1.04183 4.32159 0.991344C4.25699 0.955142 4.19891 0.927473 4.12816 0.905616C4.06045 0.884697 3.99951 0.875112 3.92883 0.870007C3.84603 0.864028 3.77412 0.864311 3.69168 0.874097C3.62454 0.882069 3.56767 0.897277 3.50414 0.920427C3.37716 0.966703 3.26924 1.01029 3.14894 1.07189C3.06776 1.11346 3.0017 1.15701 2.93059 1.21413C2.84463 1.28317 2.76944 1.34364 2.70201 1.43086C2.63101 1.5227 2.58814 1.61459 2.53951 1.71999C2.51953 1.76329 2.51982 1.80636 2.5075 1.85243C2.49503 1.89902 2.48516 1.93932 2.46871 1.98465C2.44426 2.05206 2.41699 2.10739 2.39077 2.17413C2.36257 2.2459 2.34444 2.30983 2.31325 2.38036C2.28375 2.44704 2.25182 2.50106 2.21768 2.56549C2.15579 2.68227 2.10178 2.78185 2.03889 2.89809C1.97009 3.02525 1.90523 3.13117 1.84143 3.26091C1.77656 3.3928 1.72566 3.5083 1.67159 3.64497C1.61496 3.78813 1.57116 3.91283 1.52537 4.05982C1.48933 4.17555 1.46618 4.27705 1.43799 4.39494C1.40873 4.51731 1.38863 4.62333 1.36128 4.74614C1.25261 5.23413 1.14067 5.64854 1.04936 6.14007C1.00774 6.36411 0.990461 6.55993 0.982044 6.78764C0.973162 7.02795 0.980554 7.23478 1.00004 7.47446C1.01629 7.67439 1.04384 7.84485 1.08395 8.04139C1.10842 8.16128 1.14238 8.26131 1.18409 8.37635C1.19485 8.40605 1.21633 8.44574 1.24853 8.49542L0.269159 6.79909C0.299448 6.84163 0.325124 6.87201 0.346188 6.89021C0.382524 6.92162 0.417519 6.94509 0.461195 6.96506C0.53122 6.99708 0.593992 7.01966 0.668835 7.03775C0.738514 7.05459 0.800419 7.05918 0.871918 7.06434C0.959712 7.07069 1.03588 7.08052 1.12333 7.07057C1.24246 7.05702 1.34125 7.02475 1.45805 6.99767C1.55221 6.97584 1.63546 6.96466 1.726 6.93084C1.82687 6.89317 1.90938 6.84981 2.00179 6.79457C2.13905 6.71253 2.24028 6.61575 2.3808 6.53944C2.42753 6.51407 2.47814 6.52203 2.52944 6.50806C2.58116 6.49398 2.6244 6.47808 2.67465 6.45943C2.72452 6.44091 2.77336 6.43459 2.81535 6.40193C2.88577 6.34714 2.93889 6.28906 2.98873 6.21507C3.16655 5.95105 3.31158 5.71909 3.46362 5.43943C3.58349 5.21896 3.66695 5.01982 3.7643 4.78852C3.82634 4.64114 3.86034 4.50741 3.9186 4.3585C4.0005 4.14919 4.12151 3.85178 4.28165 3.46626L4.78165 4.33229C4.62151 4.7178 4.5005 5.01522 4.4186 5.22453C4.36034 5.37344 4.32634 5.50717 4.2643 5.65455C4.16695 5.88584 4.08349 6.08498 3.96362 6.30545C3.81158 6.58511 3.65704 6.81091 3.48873 7.08109C3.43832 7.16201 3.38347 7.22429 3.33876 7.30849C3.30667 7.36894 3.29454 7.42764 3.27068 7.49178C3.24693 7.55564 3.22652 7.61036 3.20272 7.6742C3.17982 7.73561 3.17719 7.79767 3.13724 7.84962C3.03618 7.98103 2.92432 8.07201 2.80685 8.18897C2.72853 8.26694 2.66105 8.3336 2.57795 8.40646C2.5073 8.4684 2.44939 8.52681 2.36799 8.57374C2.26829 8.63121 2.17353 8.66304 2.06525 8.70201C1.99211 8.72834 1.92834 8.75403 1.85083 8.75987C1.7794 8.76526 1.71752 8.75025 1.64787 8.73349C1.57311 8.7155 1.51039 8.69303 1.44042 8.66113C1.39682 8.64125 1.36185 8.6179 1.32559 8.58658C1.30451 8.56838 1.27882 8.53799 1.24853 8.49542L0.269159 6.79909C0.237022 6.74952 0.215585 6.70991 0.204849 6.68027C0.163237 6.56537 0.129346 6.46547 0.104961 6.34573C0.0649754 6.14939 0.037505 5.9791 0.0213788 5.77938C0.00204785 5.53996 -0.0051577 5.33336 0.00383871 5.09334C0.0123693 4.86574 0.029352 4.66997 0.0713512 4.44612C0.16329 3.9561 0.262122 3.53975 0.385939 3.0568C0.412669 2.95254 0.457137 2.86991 0.500686 2.77148C0.542275 2.67748 0.58241 2.59893 0.629044 2.50733C0.691749 2.38416 0.742883 2.277 0.813042 2.15792C0.880451 2.0435 0.946007 1.95014 1.02163 1.84098C1.09849 1.73004 1.16883 1.6381 1.24858 1.52923C1.32106 1.43029 1.38353 1.34574 1.45658 1.24723C1.49634 1.19361 1.52694 1.14481 1.5709 1.09457C1.61136 1.04834 1.65382 1.01618 1.697 0.97248C1.73866 0.930324 1.76911 0.888902 1.81324 0.849342C1.83928 0.826001 1.86559 0.810536 1.89631 0.793824C1.9254 0.777994 1.95688 0.77663 1.98339 0.756772C2.06489 0.695728 2.12684 0.633524 2.20201 0.564836C2.28339 0.490464 2.34463 0.417142 2.43059 0.348103C2.5017 0.290987 2.56776 0.247435 2.64894 0.205862C2.76924 0.144262 2.87716 0.100677 3.00414 0.0544017C3.06767 0.0312512 3.12454 0.0160432 3.19168 0.00807199C3.27412 -0.00171481 3.34603 -0.00199702 3.42883 0.00398181C3.49951 0.00908619 3.56045 0.0186714 3.62816 0.0395904C3.69891 0.0614477 3.75699 0.0891165 3.82159 0.125318C3.91167 0.175803 3.98829 0.221726 4.06872 0.286487C4.11334 0.322414 4.17047 0.381013 4.24011 0.462285L4.74011 1.32831C4.80129 1.4212 4.84332 1.49513 4.8662 1.55008C4.9026 1.63751 4.92765 1.7164 4.94075 1.8102C4.96005 1.94843 4.95768 2.06902 4.95816 2.20859C4.95849 2.306 4.94614 2.38913 4.94305 2.48649C4.94279 2.49481 4.94452 2.50656 4.94823 2.52176L4.44823 1.65573C4.45021 1.66111 4.45211 1.66501 4.45393 1.66744C4.45515 1.66905 4.45723 1.66922 4.45905 1.6701C4.45924 1.6702 4.45955 1.67029 4.45996 1.67037L4.45996 1.67037Z"/>
<path id="shape6" transform="translate(38.4642985863744, 9.53547636502552)" fill="#1d0444" d="M5.04186 0.941381C5.04161 0.941009 5.04141 0.940735 5.04125 0.94056C5.03746 0.936473 5.03425 0.93294 5.03035 0.92896C5.02852 0.927092 5.0266 0.92584 5.0249 0.92386C5.01877 0.916743 5.01392 0.9103 5.008 0.903011C5.00433 0.898491 5.0015 0.894335 4.99748 0.890119C4.98988 0.882142 4.98462 0.873316 4.97484 0.868229C4.96869 0.865025 4.96153 0.865633 4.95501 0.868024C4.93898 0.873907 4.92571 0.880939 4.9121 0.891251C4.89303 0.905693 4.8767 0.918994 4.86239 0.938166C4.82165 0.99277 4.78558 1.03974 4.75562 1.10093C4.68858 1.23784 4.63237 1.35689 4.58622 1.50217C4.55758 1.59236 4.55659 1.67542 4.54341 1.76913C4.53001 1.86432 4.51864 1.94602 4.5103 2.04179C4.50168 2.14085 4.50042 2.22618 4.49497 2.32546C4.48894 2.43536 4.4858 2.5297 4.47749 2.63946C4.46669 2.78188 4.4542 2.90369 4.44037 3.04585C4.42064 3.24848 4.40246 3.42203 4.3816 3.62455C4.37474 3.69114 4.36853 3.74819 4.36117 3.81473C4.35022 3.91364 4.33927 3.99825 4.32929 4.09726C4.30858 4.30262 4.29409 4.47896 4.27347 4.68433C4.25043 4.91386 4.23086 5.11064 4.20455 5.33982C4.17646 5.58441 4.1481 5.79355 4.11804 6.0379C4.10793 6.12016 4.09999 6.19075 4.08978 6.27299C4.05776 6.53069 4.02844 6.75134 3.99738 7.00916C3.93924 7.49165 3.8903 7.90533 3.83493 8.38814C3.80556 8.64422 3.78839 8.86465 3.75528 9.12028C3.65068 9.92789 3.56286 10.6205 3.4415 11.4258C3.41393 11.6087 3.3865 11.7663 3.32995 11.9424C3.2832 12.088 3.22711 12.2088 3.14806 12.3397C3.08231 12.4486 3.00705 12.53 2.91945 12.6223C2.85486 12.6903 2.79473 12.7461 2.71509 12.7956C2.63816 12.8435 2.56676 12.8845 2.47709 12.8975C2.41641 12.9063 2.36632 12.871 2.30714 12.8549C2.24844 12.839 2.2002 12.8169 2.14035 12.8061C2.0741 12.7942 2.01475 12.8031 1.94868 12.7902C1.8018 12.7615 1.67407 12.7392 1.53356 12.6877C1.41612 12.6447 1.32288 12.5885 1.21697 12.5219C1.05716 12.4215 0.921299 12.332 0.775895 12.2116C0.703222 12.1515 0.65074 12.0874 0.597727 12.0094C0.571929 11.9714 0.544918 11.9116 0.516693 11.8301L0.0166926 10.9641C0.00160346 10.8741 -0.00325591 10.805 0.00211453 10.7569C0.017696 10.6171 0.0378618 10.4965 0.0836561 10.3635C0.134747 10.2152 0.193904 10.0922 0.276921 9.95915C0.356144 9.83214 0.435091 9.72775 0.544164 9.62522C0.766804 9.41594 0.97886 9.26023 1.22005 9.07263C1.31613 8.99788 1.40766 8.94644 1.50709 8.87621C1.63869 8.78325 1.82568 8.64904 2.06806 8.47358L2.56806 9.33961C2.32568 9.51507 2.13869 9.64927 2.00709 9.74223C1.90766 9.81247 1.81613 9.86391 1.72005 9.93865C1.47886 10.1263 1.2668 10.282 1.04416 10.4912C0.935091 10.5938 0.856144 10.6982 0.776921 10.8252C0.693904 10.9583 0.634747 11.0812 0.583656 11.2295C0.537862 11.3625 0.517696 11.4832 0.502114 11.6229C0.496744 11.6711 0.501603 11.7401 0.516693 11.8301L0.0166926 10.9641C0.0449177 11.0456 0.0719293 11.1054 0.0977274 11.1433C0.15074 11.2214 0.203222 11.2854 0.275895 11.3456C0.4213 11.4659 0.557155 11.5555 0.716972 11.6559C0.822882 11.7224 0.916124 11.7786 1.03356 11.8217C1.17407 11.8732 1.30101 11.8999 1.44868 11.9242C1.51079 11.9344 1.57118 11.9456 1.62845 11.9195C1.67106 11.9001 1.68215 11.8503 1.7029 11.8083C1.72832 11.7569 1.72814 11.7026 1.75945 11.6545C1.81144 11.5747 1.87951 11.5242 1.93729 11.4484C1.99948 11.3668 2.05103 11.295 2.10163 11.2058C2.17205 11.0816 2.22814 10.9722 2.28226 10.8401C2.34505 10.6869 2.39142 10.552 2.43496 10.3923C2.48373 10.2133 2.51754 10.0573 2.54554 9.8739C2.66798 9.07176 2.75697 8.38184 2.8646 7.57758C2.8984 7.32509 2.91656 7.10732 2.94961 6.85473C3.01104 6.38526 3.06467 5.98294 3.13452 5.51464C3.17075 5.27177 3.21175 5.06519 3.25265 4.82305C3.26574 4.7456 3.27635 4.67912 3.28877 4.60156C3.32601 4.36894 3.35863 4.16967 3.39454 3.93685C3.42777 3.72144 3.45579 3.53672 3.48629 3.3209C3.51376 3.12658 3.53482 2.95968 3.56015 2.76507C3.57279 2.66792 3.58244 2.5845 3.59478 2.48731C3.60296 2.42287 3.60932 2.36755 3.61877 2.30329C3.64649 2.11479 3.66762 1.95276 3.70096 1.76517C3.7224 1.64454 3.74472 1.54174 3.77521 1.42308C3.79549 1.34414 3.81823 1.27787 3.84588 1.2012C3.86913 1.13676 3.89507 1.08386 3.92051 1.02025C3.94802 0.951478 3.96781 0.890998 3.99715 0.822988C4.02585 0.756469 4.05707 0.702469 4.08622 0.636147C4.14756 0.496595 4.18858 0.371813 4.25562 0.234908C4.28558 0.173718 4.32165 0.126745 4.36239 0.0721407C4.3767 0.052969 4.39303 0.0396672 4.4121 0.0252251C4.42571 0.0149135 4.43898 0.00788112 4.45501 0.0019982C4.46153 -0.000392677 4.46869 -0.00100061 4.47484 0.00220331C4.48462 0.0072903 4.48988 0.0161166 4.49748 0.0240939C4.5015 0.0283093 4.50433 0.0324654 4.508 0.0369851C4.51392 0.0442744 4.51877 0.0507175 4.5249 0.0578341C4.5266 0.0598144 4.52852 0.0610667 4.53035 0.0629343C4.53425 0.0669146 4.53746 0.070448 4.54125 0.0745348C4.54141 0.0747096 4.54161 0.0749831 4.54186 0.0753553L4.54186 0.0753553Z"/>
<path id="shape7" transform="translate(44.1226362287674, 9.27307600116263)" fill="#1d0444" d="M0.668938 1.71248C0.668148 1.71141 0.66754 1.71059 0.667114 1.71002C0.66426 1.70616 0.662124 1.70261 0.658958 1.69901C0.61279 1.64648 0.571855 1.60265 0.526191 1.54968C0.521247 1.54395 0.514988 1.53513 0.507413 1.52322L0.00741282 0.657196C0.00234054 0.643285 -0.000128681 0.632435 5.16136e-06 0.624648C0.000262292 0.609687 0.00257271 0.596442 0.00869165 0.582787C0.0260822 0.543979 0.0419529 0.510621 0.066624 0.475981C0.109684 0.415523 0.146169 0.361835 0.201388 0.312235C0.274425 0.246629 0.344563 0.19808 0.429947 0.149624C0.51564 0.100993 0.594447 0.0682726 0.68764 0.0362827C0.746899 0.0159411 0.800536 0.00379869 0.863124 0.000930292C0.941976 -0.00268352 1.01023 0.00449165 1.08801 0.0179336C1.16087 0.0305246 1.22303 0.0468458 1.29142 0.0749471C1.38637 0.11396 1.46374 0.157027 1.5524 0.208752C1.60939 0.241998 1.65587 0.27499 1.70661 0.317162C1.75693 0.358984 1.79753 0.398328 1.84018 0.447945C1.87391 0.487175 1.89738 0.52535 1.9238 0.569826C1.94151 0.599639 1.96399 0.64378 1.99124 0.702249L2.49124 1.56827C2.51788 1.6491 2.53538 1.71197 2.54376 1.75688C2.55535 1.81902 2.55096 1.87419 2.55997 1.93676C2.56706 1.98604 2.57862 2.02733 2.58969 2.07588C2.60093 2.12515 2.61052 2.16743 2.62369 2.21623C2.63746 2.26719 2.65417 2.30951 2.66663 2.36081C2.68042 2.41756 2.69147 2.46661 2.69861 2.52456C2.70665 2.58972 2.71025 2.64614 2.7099 2.71178C2.70938 2.8085 2.69973 2.89113 2.69611 2.98779C2.69245 3.08556 2.70117 3.17015 2.68911 3.26724C2.67069 3.41541 2.6412 3.54044 2.60931 3.6863C2.5952 3.75086 2.57809 3.80505 2.55781 3.86794C2.43101 4.26104 2.31625 4.596 2.18912 4.98899C2.15049 5.10839 2.11526 5.21026 2.08422 5.33186C1.97007 5.77907 1.87218 6.16259 1.77442 6.61366C1.6993 6.96031 1.65525 7.26151 1.59045 7.61023C1.5795 7.66918 1.56936 7.71957 1.55799 7.77844C1.53068 7.91972 1.5076 8.04088 1.47991 8.18209C1.45498 8.30925 1.43119 8.41777 1.40766 8.54519C1.38244 8.68183 1.36364 8.79946 1.34064 8.93649C1.34048 8.93741 1.34071 8.93872 1.34133 8.94043L0.361404 7.24315C0.372531 7.19648 0.383083 7.16129 0.393061 7.13759C0.455643 6.98894 0.505501 6.85922 0.582667 6.71759C0.60258 6.68104 0.635069 6.66037 0.667374 6.63413C0.687798 6.61754 0.710087 6.61032 0.732227 6.5961C0.759164 6.5788 0.778555 6.55782 0.807499 6.54413C0.844263 6.52676 0.882509 6.52811 0.918012 6.50829C0.960005 6.48484 0.996421 6.46091 1.02535 6.42248C1.07902 6.35121 1.11795 6.28339 1.15003 6.20013C1.22408 6.00796 1.27154 5.83732 1.32722 5.63905C1.35598 5.53662 1.36572 5.4452 1.39104 5.34187C1.52525 4.794 1.64451 4.32545 1.78297 3.77864C1.79113 3.74641 1.804 3.7007 1.82157 3.6415L2.32157 4.50752C2.304 4.56672 2.29113 4.61244 2.28297 4.64466C2.14451 5.19147 2.02525 5.66003 1.89104 6.20789C1.86572 6.31122 1.85598 6.40265 1.82722 6.50507C1.77154 6.70334 1.71102 6.86945 1.65003 7.06615C1.61879 7.16692 1.58449 7.25152 1.56371 7.35495C1.54725 7.43686 1.54596 7.50933 1.54419 7.59285C1.54237 7.67806 1.55272 7.75096 1.55347 7.83619C1.554 7.89662 1.54962 7.94836 1.54783 8.00877C1.54634 8.05912 1.54863 8.10248 1.54409 8.15265C1.53819 8.21779 1.53404 8.27428 1.51804 8.3377C1.47377 8.51311 1.42315 8.66 1.37225 8.8336C1.36495 8.8585 1.35464 8.89411 1.34133 8.94043L0.361404 7.24315C0.360899 7.24156 0.360719 7.24033 0.360865 7.23947C0.384149 7.10283 0.403177 6.98555 0.428523 6.84928C0.452203 6.72196 0.475967 6.61351 0.500929 6.48644C0.528659 6.34528 0.551704 6.22414 0.579069 6.08291C0.590462 6.02411 0.600695 5.9738 0.611664 5.91492C0.676593 5.56637 0.720726 5.26532 0.795918 4.91885C0.893783 4.4679 0.991698 4.08449 1.10593 3.63741C1.13699 3.51586 1.17229 3.41405 1.21092 3.29469C1.33809 2.90174 1.45282 2.56679 1.57965 2.17373C1.59993 2.11086 1.61359 2.05584 1.63121 1.99218C1.66782 1.85991 1.69387 1.745 1.73457 1.61394C1.75394 1.55159 1.78212 1.50223 1.80264 1.44024C1.82573 1.37048 1.83833 1.30851 1.85901 1.238C1.87016 1.19998 1.87962 1.16728 1.89358 1.1302C1.90168 1.10867 1.90389 1.08521 1.9219 1.0709C1.93354 1.06165 1.94954 1.07617 1.96426 1.07405C1.97854 1.07199 1.98979 1.06561 2.00274 1.05924C2.01651 1.05248 2.03668 1.05159 2.04031 1.03669C2.05239 0.987083 2.05117 0.941368 2.04376 0.890851C2.03713 0.845654 2.01962 0.782786 1.99124 0.702249L2.49124 1.56827C2.46399 1.50981 2.44151 1.46566 2.4238 1.43585C2.39738 1.39138 2.37391 1.3532 2.34018 1.31397C2.29753 1.26435 2.25693 1.22501 2.20661 1.18319C2.15587 1.14102 2.10939 1.10802 2.0524 1.07478C1.96374 1.02305 1.88637 0.979986 1.79142 0.940973C1.72303 0.912871 1.66087 0.89655 1.58801 0.883959C1.51023 0.870517 1.44198 0.863342 1.36312 0.866956C1.30054 0.869824 1.2469 0.881967 1.18764 0.902308C1.09445 0.934298 1.01564 0.967018 0.929947 1.01565C0.844563 1.06411 0.774424 1.11265 0.701388 1.17826C0.646169 1.22786 0.609684 1.28155 0.566624 1.34201C0.541953 1.37665 0.526082 1.41 0.508692 1.44881C0.502573 1.46247 0.500262 1.47571 0.500005 1.49067C0.499871 1.49846 0.50234 1.50931 0.507413 1.52322L0.00741282 0.657196C0.0149881 0.669103 0.0212476 0.677924 0.0261914 0.683658C0.071855 0.736626 0.11279 0.780453 0.158958 0.832981C0.162125 0.836583 0.16426 0.840138 0.167115 0.843992C0.16754 0.844566 0.168148 0.845387 0.168938 0.846453L0.168938 0.846453Z"/>
<path id="shape8" transform="translate(46.2789598063182, 10.2629996163459)" fill="#1d0444" d="M-3.44169e-15 1.80025C0.000467675 1.79861 0.00087285 1.79737 0.00121553 1.79653C0.0138112 1.76542 0.0262992 1.7394 0.0374527 1.70775C0.0596865 1.64465 0.0730286 1.5886 0.096551 1.52597C0.137902 1.41587 0.178617 1.32356 0.222698 1.21452C0.230719 1.19468 0.236194 1.17707 0.245413 1.15776C0.28564 1.07348 0.322516 1.00242 0.363903 0.918707C0.394339 0.857148 0.418243 0.803265 0.450621 0.742704C0.475762 0.695678 0.495426 0.653656 0.528125 0.611533C0.605465 0.511908 0.676412 0.429862 0.763959 0.339076C0.79285 0.309115 0.823951 0.289962 0.859344 0.26806C0.90306 0.241007 0.941795 0.219249 0.98931 0.199621C1.03589 0.180381 1.0776 0.167513 1.12699 0.157498C1.19586 0.143534 1.25628 0.139762 1.32604 0.131339C1.34081 0.129556 1.35356 0.128535 1.36844 0.128346C1.4249 0.127627 1.47344 0.124948 1.52978 0.128746C1.56367 0.13103 1.59221 0.138159 1.62534 0.145662C1.65848 0.153168 1.68605 0.162913 1.71891 0.171581C1.73539 0.175928 1.74954 0.179636 1.76628 0.182844C1.78899 0.187195 1.8084 0.193275 1.83152 0.193162C1.85659 0.19304 1.87835 0.189575 1.9023 0.182178C1.95953 0.164505 2.00813 0.147101 2.06245 0.121852C2.11785 0.0960986 2.1951 0.0554811 2.2942 0L2.7942 0.866025C2.6951 0.921507 2.61785 0.962124 2.56245 0.987878C2.50813 1.01313 2.45953 1.03053 2.4023 1.0482C2.37835 1.0556 2.35659 1.05907 2.33152 1.05919C2.3084 1.0593 2.28899 1.05322 2.26628 1.04887C2.24954 1.04566 2.23539 1.04195 2.21891 1.03761C2.18605 1.02894 2.15848 1.01919 2.12534 1.01169C2.09221 1.00418 2.06367 0.997055 2.02978 0.994771C1.97344 0.990974 1.9249 0.993653 1.86844 0.994371C1.85356 0.994561 1.84081 0.995581 1.82604 0.997364C1.75628 1.00579 1.69586 1.00956 1.62699 1.02352C1.5776 1.03354 1.53589 1.04641 1.48931 1.06565C1.44179 1.08527 1.40306 1.10703 1.35934 1.13409C1.32395 1.15599 1.29285 1.17514 1.26396 1.2051C1.17641 1.29589 1.10547 1.37793 1.02813 1.47756C0.995426 1.51968 0.975762 1.5617 0.95062 1.60873C0.918243 1.66929 0.894339 1.72317 0.863903 1.78473C0.822516 1.86844 0.78564 1.93951 0.745413 2.02378C0.736194 2.04309 0.730719 2.06071 0.722698 2.08055C0.678617 2.18958 0.637901 2.28189 0.596551 2.39199C0.573028 2.45462 0.559686 2.51068 0.537453 2.57378C0.526299 2.60543 0.513811 2.63145 0.501215 2.66255C0.500873 2.6634 0.500468 2.66464 0.5 2.66627L0.5 2.66627Z"/>
<path id="shape9" transform="translate(47.9513991031248, 9.44583031714205)" fill="#1d0444" d="M4.45047 0.774071C4.4499 0.772109 4.44947 0.770596 4.4492 0.769531C4.44281 0.745173 4.43711 0.724352 4.43103 0.699914C4.41761 0.645917 4.40967 0.598676 4.39349 0.54544C4.37595 0.487686 4.36247 0.436923 4.33483 0.383266C4.31974 0.353979 4.29189 0.316035 4.25128 0.269435L4.75128 1.13546C4.67323 1.07195 4.61105 1.02633 4.56474 0.998594C4.50923 0.965349 4.45785 0.942226 4.39614 0.922769C4.33129 0.90232 4.27326 0.891008 4.20549 0.88532C4.04297 0.871679 3.90285 0.862002 3.73985 0.867682C3.60934 0.872229 3.4973 0.88677 3.36967 0.914445C3.26239 0.937709 3.171 0.965623 3.07176 1.01255C2.96947 1.06092 2.88733 1.11509 2.79814 1.18471C2.69423 1.26581 2.61079 1.34344 2.52246 1.44128C2.36371 1.61712 2.22452 1.76751 2.09369 1.96502C2.03947 2.04687 2.02387 2.13423 2.00032 2.22955C1.99141 2.26562 2.00387 2.29857 2.00213 2.33568C1.99902 2.40193 2.00196 2.46005 1.98647 2.52454C1.96681 2.60642 1.93023 2.6705 1.90261 2.75004C1.87295 2.83547 1.84775 2.90887 1.82283 2.9958C1.79579 3.09017 1.77857 3.17266 1.75423 3.26776C1.7287 3.36749 1.71047 3.45401 1.68035 3.55245C1.65123 3.64761 1.61827 3.72652 1.58515 3.82036C1.47319 4.13756 1.35528 4.40259 1.26583 4.72686C1.16354 5.09769 1.10216 5.42279 1.0385 5.80217C1.00206 6.0193 0.988945 6.20853 0.980274 6.42853C0.974364 6.57848 0.982345 6.70762 0.996928 6.85697C1.0144 7.03594 1.03414 7.18941 1.07173 7.36526C1.09639 7.48058 1.1298 7.57699 1.1742 7.68625C1.19479 7.73693 1.23203 7.80565 1.28592 7.8924L0.306827 6.19656C0.367316 6.2764 0.416412 6.3355 0.454117 6.37385C0.499359 6.41986 0.54314 6.45467 0.596409 6.4911C0.628036 6.51273 0.658258 6.52787 0.69504 6.5386C0.756785 6.55662 0.811757 6.56511 0.875642 6.57258C0.935922 6.57961 0.988223 6.57808 1.04888 6.57992C1.08115 6.5809 1.10919 6.57588 1.14112 6.58065C1.20871 6.59074 1.26434 6.61186 1.3319 6.62218C1.3825 6.62992 1.4269 6.63726 1.47783 6.63211C1.55627 6.62416 1.62393 6.61175 1.69812 6.5851C1.78817 6.55275 1.85541 6.5019 1.9436 6.46479C1.99033 6.44512 2.03203 6.42913 2.08241 6.42336C2.1433 6.41639 2.19615 6.42787 2.25743 6.42884C2.2892 6.42934 2.31949 6.44115 2.34821 6.42755C2.40344 6.4014 2.4473 6.3677 2.48616 6.32054C2.69931 6.06181 2.87951 5.83669 3.06501 5.55746C3.25801 5.26696 3.40718 5.00654 3.56554 4.6958C3.80309 4.22968 3.97427 3.81437 4.19504 3.34007C4.22989 3.26522 4.26274 3.20244 4.29586 3.12681C4.34205 3.02133 4.40597 2.86975 4.4876 2.67207L4.9876 3.5381C4.90597 3.73578 4.84205 3.88736 4.79586 3.99284C4.76274 4.06846 4.72989 4.13125 4.69504 4.2061C4.47427 4.6804 4.30309 5.0957 4.06554 5.56183C3.90718 5.87257 3.75801 6.13298 3.56501 6.42349C3.37951 6.70271 3.18565 6.91717 2.98616 7.18657C2.94581 7.24105 2.90886 7.28724 2.87997 7.34857C2.86231 7.38605 2.86402 7.42384 2.85528 7.46434C2.83893 7.54005 2.83387 7.60749 2.80827 7.6806C2.78921 7.73504 2.76627 7.78108 2.72896 7.82507C2.6656 7.89977 2.59869 7.95224 2.52407 8.01568C2.4665 8.06463 2.41241 8.1007 2.35176 8.14579C2.31747 8.17128 2.29 8.19623 2.25284 8.21731C2.20864 8.24238 2.16964 8.26407 2.12049 8.27698C2.08927 8.28517 2.06053 8.27724 2.02827 8.27626C1.96761 8.27443 1.91532 8.27599 1.85505 8.26896C1.79117 8.26151 1.7362 8.25301 1.67446 8.23501C1.63769 8.22429 1.60746 8.20918 1.57586 8.18755C1.52253 8.15106 1.47871 8.11617 1.43343 8.07007C1.39567 8.03163 1.3465 7.97241 1.28592 7.8924L0.306827 6.19656C0.252968 6.10987 0.215752 6.0412 0.195179 5.99054C0.150892 5.88148 0.11759 5.78524 0.0930439 5.67012C0.0555985 5.4945 0.0360125 5.34122 0.0186239 5.1625C0.00409192 5.01314 -0.00397414 4.88401 0.00197099 4.73406C0.0106884 4.51419 0.0239513 4.32509 0.0604289 4.10809C0.124185 3.72882 0.185655 3.40381 0.287912 3.03305C0.377372 2.7087 0.487604 2.44079 0.607042 2.12623C0.639486 2.04079 0.676346 1.971 0.721379 1.89146C0.761121 1.82127 0.801959 1.7651 0.848729 1.69938C0.891647 1.63908 0.932152 1.59013 0.97748 1.53161C1.02185 1.47433 1.05914 1.42463 1.105 1.36854C1.14855 1.31528 1.17622 1.2583 1.23285 1.21923C1.26621 1.19622 1.30676 1.20303 1.34726 1.2014C1.37049 1.20047 1.39137 1.22094 1.41285 1.21202C1.48177 1.18337 1.54207 1.15291 1.59369 1.09899C1.75752 0.927867 1.86371 0.7511 2.02246 0.575255C2.11079 0.477417 2.19423 0.399782 2.29814 0.318682C2.38733 0.249065 2.46947 0.194894 2.57176 0.146526C2.671 0.0995972 2.76239 0.0716831 2.86967 0.0484193C2.9973 0.0207448 3.10934 0.00620383 3.23985 0.00165607C3.40285 -0.00402343 3.54297 0.00565346 3.70549 0.019295C3.77326 0.0249829 3.83129 0.0362945 3.89614 0.0567433C3.95785 0.0762005 4.00923 0.0993238 4.06474 0.132568C4.11105 0.160306 4.17323 0.205928 4.25128 0.269435L4.75128 1.13546C4.79189 1.18206 4.81974 1.22 4.83483 1.24929C4.86247 1.30295 4.87595 1.35371 4.89349 1.41147C4.90967 1.4647 4.91761 1.51194 4.93103 1.56594C4.93711 1.59038 4.94281 1.6112 4.94919 1.63556C4.94947 1.63662 4.9499 1.63813 4.95047 1.6401L4.95047 1.6401Z"/>
<path id="shape10" transform="translate(51.5037124806178, 9.43412255442659)" fill="#1d0444" d="M1.28166 1.54336C1.28246 1.54115 1.28309 1.53945 1.28354 1.53827C1.28636 1.53092 1.28886 1.52465 1.29164 1.51728C1.29726 1.50238 1.30202 1.48958 1.30754 1.47464C1.32012 1.44059 1.33045 1.41124 1.34336 1.37732C1.37225 1.30147 1.40129 1.23802 1.42697 1.16102C1.4605 1.06048 1.49382 0.974845 1.5124 0.870497C1.54523 0.686195 1.56111 0.525919 1.57336 0.339118C1.57774 0.272318 1.56768 0.214807 1.55975 0.148334C1.55525 0.110607 1.54876 0.0784117 1.53792 0.0419975C1.53556 0.0340789 1.5293 0.0240702 1.51915 0.0119713L2.01915 0.877997C2.01418 0.873721 2.01011 0.870878 2.00693 0.869466C2.00222 0.867371 1.99767 0.865454 1.99256 0.866183C1.97971 0.868019 1.96771 0.869315 1.95697 0.876603C1.92934 0.895348 1.90611 0.913339 1.88497 0.939182C1.82018 1.01839 1.74909 1.07973 1.71261 1.17534C1.68594 1.24522 1.71831 1.31442 1.71332 1.38905C1.70891 1.45501 1.69386 1.51031 1.68582 1.57593C1.67702 1.64784 1.6808 1.71114 1.66522 1.78189C1.62872 1.94763 1.5777 2.08478 1.53746 2.24966C1.50384 2.38746 1.48299 2.50738 1.45428 2.64628C1.417 2.82669 1.38356 2.98103 1.34894 3.16197C1.3109 3.36075 1.27905 3.53131 1.24672 3.7311C1.21465 3.92927 1.19299 4.10003 1.16498 4.29881C1.13188 4.53382 1.09963 4.73478 1.07211 4.97051C1.03779 5.26457 1.00323 5.51654 0.988343 5.81222C0.975933 6.0588 0.975806 6.2714 0.994247 6.5176C1.00836 6.70599 1.03939 6.86607 1.08108 7.05033C1.10905 7.17394 1.1446 7.27755 1.19272 7.39479C1.20901 7.43447 1.24049 7.48702 1.28718 7.55245L0.308016 5.8565C0.353629 5.91135 0.391102 5.95101 0.420435 5.97547C0.50235 6.04379 0.576305 6.0983 0.666414 6.15537C0.758151 6.21347 0.841515 6.25567 0.938855 6.3038C0.986338 6.32728 1.02837 6.34589 1.07953 6.35963C1.12516 6.37188 1.16637 6.38262 1.21335 6.37751C1.34209 6.36352 1.44732 6.3173 1.57629 6.30564C1.68793 6.29556 1.7849 6.30415 1.89638 6.31581C1.97257 6.32377 2.04248 6.39688 2.11042 6.3615C2.28823 6.26889 2.51741 6.09714 2.79798 5.84625L3.29798 6.71227C2.98137 6.91402 2.75218 7.08577 2.61042 7.22752C2.55227 7.28566 2.58285 7.37852 2.5545 7.4557C2.51425 7.56528 2.48964 7.66881 2.41526 7.75878C2.33668 7.85384 2.23515 7.90091 2.13136 7.96756C2.09946 7.98805 2.06766 8.00077 2.03012 8.0061C1.99081 8.01167 1.95381 8.01277 1.91698 7.99795C1.81687 7.9577 1.73694 7.90911 1.64569 7.85152C1.55543 7.79457 1.48156 7.73982 1.39961 7.67146C1.37028 7.64699 1.3328 7.60732 1.28718 7.55245L0.308016 5.8565C0.261421 5.79122 0.230006 5.73879 0.213772 5.6992C0.16579 5.58219 0.130397 5.47878 0.102536 5.35543C0.0609413 5.17127 0.0299176 5.01129 0.0158758 4.82301C-0.00247354 4.57698 -0.00567307 4.36433 0.010257 4.11813C0.0286566 3.83376 0.068071 3.59183 0.113737 3.31055C0.148821 3.09445 0.193067 2.91174 0.240803 2.69808C0.280007 2.52261 0.317869 2.37317 0.362104 2.19889C0.407688 2.0193 0.446805 1.86533 0.497413 1.68709C0.543037 1.5264 0.585894 1.38973 0.637002 1.23071C0.675425 1.11115 0.710581 1.00938 0.753182 0.891249C0.806133 0.744423 0.839307 0.612939 0.909976 0.473772C0.929383 0.435554 0.971651 0.423444 1.00463 0.396071C1.0367 0.369458 1.05737 0.335572 1.09583 0.319529C1.1337 0.303733 1.18138 0.335923 1.21261 0.309313C1.29049 0.242946 1.32018 0.152362 1.38497 0.073157C1.40611 0.0473134 1.42934 0.029323 1.45697 0.0105774C1.46771 0.00328947 1.47971 0.00199341 1.49256 0.00015798C1.49767 -0.000571542 1.50222 0.00134583 1.50693 0.00344086C1.51011 0.0048525 1.51418 0.00769599 1.51915 0.0119713L2.01915 0.877997C2.0293 0.890096 2.03556 0.900104 2.03792 0.908023C2.04876 0.944437 2.05525 0.976632 2.05975 1.01436C2.06768 1.08083 2.07773 1.13834 2.07336 1.20514C2.06111 1.39194 2.04523 1.55222 2.0124 1.73652C1.99382 1.84087 1.9605 1.9265 1.92697 2.02705C1.90129 2.10404 1.87225 2.1675 1.84336 2.24335C1.83045 2.27727 1.82012 2.30662 1.80754 2.34066C1.80202 2.3556 1.79726 2.3684 1.79164 2.38331C1.78886 2.39067 1.78636 2.39694 1.78354 2.40429C1.78309 2.40548 1.78246 2.40717 1.78166 2.40938L1.78166 2.40938Z"/>
<path id="shape11" transform="translate(54.7268686418344, 4.04356249269835)" fill="#1d0444" d="M0 11.1247C0.000522179 11.1241 0.000927354 11.1236 0.00121553 11.1233C0.00452289 11.1197 0.00769106 11.1169 0.0106845 11.113C0.0547559 11.0559 0.0964569 11.0096 0.135653 10.9491C0.186403 10.8707 0.219126 10.797 0.267085 10.7168C0.344437 10.5876 0.422177 10.4835 0.493619 10.3509C0.689481 9.98727 0.838156 9.66556 1.03031 9.29998C1.26062 8.86181 1.47443 8.4949 1.70058 8.05456C1.97668 7.51696 2.18524 7.04194 2.46508 6.50627C2.72021 6.0179 2.97263 5.61748 3.22863 5.12956C3.39327 4.81577 3.53202 4.54454 3.6664 4.21665C3.75002 4.01263 3.80184 3.82917 3.8498 3.61396C3.90522 3.36532 3.93982 3.14854 3.96103 2.89468C3.98441 2.61477 3.98284 2.37314 3.97692 2.09232C3.97439 1.97254 3.96232 1.86945 3.93695 1.75237C3.88992 1.53527 3.83217 1.35332 3.77058 1.1399C3.76032 1.10435 3.74287 1.07687 3.73183 1.04156C3.69777 0.932573 3.67407 0.837516 3.64183 0.727975C3.61749 0.645241 3.60422 0.571456 3.57018 0.492219C3.55481 0.456452 3.52481 0.409626 3.48017 0.351741L3.98017 1.21777C3.90751 1.12965 3.84868 1.06477 3.80368 1.02314C3.76654 0.98878 3.72704 0.968523 3.68328 0.943104C3.64468 0.920678 3.61028 0.903406 3.56887 0.886723C3.54588 0.877459 3.52454 0.874093 3.50021 0.869345C3.48764 0.866893 3.47655 0.865497 3.46377 0.866213C3.45495 0.866707 3.44741 0.869057 3.43938 0.872752C3.4129 0.884939 3.38978 0.895101 3.36561 0.911392C3.35181 0.920691 3.34174 0.931544 3.33207 0.94508C3.30678 0.980456 3.28564 1.01153 3.26622 1.05043C3.23985 1.10327 3.22268 1.15113 3.2017 1.20632C3.18971 1.23789 3.18112 1.26561 3.17209 1.29814C3.153 1.36692 3.12984 1.4248 3.12139 1.49567C3.10422 1.63967 3.09828 1.7644 3.0992 1.90942C3.09958 1.97038 3.11761 2.02117 3.12509 2.08167C3.13201 2.13767 3.13579 2.18592 3.14034 2.24217C3.14458 2.29465 3.15036 2.33963 3.1502 2.39228C3.14998 2.46298 3.14661 2.52367 3.13925 2.59399C3.12834 2.69829 3.11308 2.78698 3.09803 2.89076C3.07579 3.04413 3.05656 3.17557 3.0327 3.3287C3.01149 3.46478 2.9947 3.58169 2.96927 3.71704C2.93789 3.88404 2.9084 4.02674 2.87042 4.19236C2.8296 4.37038 2.78853 4.52152 2.74418 4.6987C2.61711 5.20632 2.5077 5.64131 2.38065 6.14894C2.35498 6.25148 2.33249 6.33924 2.30783 6.44202C2.27617 6.57402 2.24876 6.68712 2.21974 6.81972C2.1832 6.98669 2.14953 7.12944 2.12052 7.29788C2.05272 7.69167 2.00327 8.03065 1.9432 8.4257C1.93524 8.47805 1.93004 8.52322 1.92618 8.57604C1.88295 9.16751 1.84675 9.67456 1.80866 10.2664C1.80021 10.3976 1.79851 10.5104 1.79322 10.6417C1.78837 10.7623 1.78415 10.8656 1.77968 10.9861C1.77707 11.0563 1.77541 11.1165 1.77299 11.1867C1.77151 11.2298 1.76879 11.2667 1.76854 11.3097C1.7672 11.5473 1.7649 11.7509 1.76846 11.9884C1.7695 12.0578 1.77395 12.1173 1.78169 12.1862C1.80167 12.3642 1.81868 12.5169 1.84764 12.6936C1.85707 12.7512 1.87266 12.7992 1.89118 12.8545C1.89644 12.8702 1.90698 12.8914 1.9228 12.9181L0.943289 11.2215C0.974432 11.2591 0.999052 11.2874 1.01715 11.3065C1.03191 11.322 1.04556 11.3346 1.06281 11.3473C1.10686 11.3798 1.14545 11.4067 1.19198 11.4355C1.26558 11.4812 1.32991 11.5184 1.4058 11.5601C1.46242 11.5912 1.51125 11.6177 1.57043 11.6437C1.6253 11.6677 1.67251 11.6902 1.73111 11.7027C1.79373 11.7161 1.84949 11.7167 1.91353 11.717C1.98117 11.7174 2.03879 11.7027 2.10639 11.7048C2.1434 11.7059 2.17436 11.7162 2.21 11.7262C2.24398 11.7358 2.27076 11.7513 2.3048 11.7607C2.33996 11.7704 2.37109 11.7747 2.40709 11.7805C2.44137 11.786 2.47125 11.7988 2.5055 11.7931C2.56381 11.7834 2.60978 11.7587 2.66498 11.7375C2.73882 11.7092 2.80029 11.6803 2.87404 11.6518C2.91986 11.634 2.96193 11.6259 3.00649 11.6052C3.03851 11.5903 3.06177 11.5699 3.09139 11.5507C3.15109 11.512 3.20205 11.4784 3.2617 11.4396C3.28813 11.4224 3.31174 11.4091 3.33735 11.3907C3.4945 11.2778 3.63268 11.1855 3.78379 11.0646C3.87863 10.9888 3.95648 10.9187 4.039 10.8296C4.12582 10.7358 4.19436 10.6495 4.26617 10.5438C4.37781 10.3796 4.47082 10.2361 4.56219 10.0597C4.6594 9.87209 4.72334 9.70182 4.80371 9.50641C4.82887 9.44524 4.84434 9.39045 4.86349 9.32714C4.94035 9.07304 5.0225 8.85923 5.07802 8.59963C5.11429 8.43 5.11653 8.27948 5.12457 8.10621C5.13138 7.95935 5.13708 7.83225 5.12038 7.68618C5.103 7.53417 5.06351 7.40773 5.02771 7.25898C5.01711 7.21494 4.99947 7.17963 4.98793 7.13583C4.96924 7.06493 4.95422 7.00377 4.94141 6.93157C4.93261 6.88197 4.93315 6.83834 4.92628 6.78842C4.92313 6.76548 4.92079 6.74537 4.91281 6.72363C4.89839 6.68435 4.8814 6.65251 4.86267 6.61509C4.8606 6.61094 4.85657 6.60568 4.85059 6.5993L5.35059 7.46532C5.34337 7.46074 5.33756 7.45822 5.33314 7.45775C5.31514 7.45585 5.29951 7.45727 5.28142 7.45801C5.27282 7.45836 5.26541 7.45905 5.257 7.46085C5.25561 7.46115 5.25444 7.46242 5.25425 7.46382C5.25363 7.46843 5.25312 7.47277 5.25481 7.4771C5.2664 7.50684 5.27466 7.53355 5.29191 7.56041C5.3122 7.59201 5.34496 7.63451 5.39018 7.6879L4.89018 6.82187C4.97462 6.92816 5.04145 7.00827 5.09069 7.06221C5.12194 7.09645 5.15013 7.12607 5.18978 7.15009C5.23631 7.17827 5.28033 7.19778 5.3335 7.20928C5.41784 7.22752 5.4925 7.23555 5.57877 7.23423C5.65251 7.23309 5.7147 7.21664 5.78704 7.2023C5.805 7.19875 5.82988 7.1907 5.86169 7.17817L6.36169 8.0442C6.32988 8.05673 6.305 8.06477 6.28704 8.06833C6.2147 8.08266 6.15251 8.09912 6.07877 8.10025C5.9925 8.10158 5.91784 8.09355 5.8335 8.07531C5.78033 8.0638 5.73631 8.0443 5.68978 8.01611C5.65013 7.9921 5.62194 7.96247 5.59069 7.92823C5.54145 7.87429 5.47462 7.79418 5.39018 7.6879L4.89018 6.82187C4.84496 6.76848 4.8122 6.72599 4.79191 6.69438C4.77466 6.66752 4.7664 6.64081 4.75481 6.61107C4.75312 6.60674 4.75363 6.60241 4.75425 6.5978C4.75444 6.59639 4.75561 6.59512 4.757 6.59483C4.76541 6.59303 4.77282 6.59233 4.78142 6.59198C4.79951 6.59125 4.81514 6.58982 4.83314 6.59173C4.83756 6.59219 4.84337 6.59472 4.85059 6.5993L5.35059 7.46532C5.35657 7.4717 5.3606 7.47697 5.36267 7.48112C5.3814 7.51854 5.39839 7.55037 5.41281 7.58966C5.42079 7.6114 5.42313 7.6315 5.42628 7.65445C5.43315 7.70436 5.43261 7.74799 5.44141 7.7976C5.45422 7.86979 5.46924 7.93096 5.48793 8.00186C5.49947 8.04566 5.51711 8.08097 5.52771 8.125C5.56351 8.27376 5.603 8.4002 5.62038 8.55221C5.63708 8.69827 5.63138 8.82537 5.62457 8.97223C5.61653 9.14551 5.61429 9.29602 5.57802 9.46565C5.5225 9.72525 5.44035 9.93907 5.36349 10.1932C5.34434 10.2565 5.32887 10.3113 5.30371 10.3724C5.22334 10.5678 5.1594 10.7381 5.06219 10.9257C4.97082 11.1021 4.87781 11.2456 4.76617 11.4099C4.69436 11.5155 4.62582 11.6019 4.539 11.6956C4.45648 11.7847 4.37863 11.8548 4.28379 11.9307C4.13268 12.0515 3.9945 12.1438 3.83735 12.2567C3.81174 12.2751 3.78813 12.2885 3.7617 12.3057C3.70205 12.3445 3.65109 12.378 3.59139 12.4167C3.56177 12.4359 3.53348 12.4484 3.50649 12.4712C3.4682 12.5035 3.44343 12.5398 3.40597 12.5731C3.34661 12.6258 3.29471 12.6702 3.23026 12.7166C3.18311 12.7505 3.133 12.7653 3.08792 12.8019C3.06431 12.8211 3.05481 12.8477 3.0378 12.8729C3.02048 12.8986 3.00463 12.92 2.98986 12.9472C2.97642 12.972 2.97328 12.9976 2.95745 13.0208C2.94131 13.0446 2.9247 13.0647 2.9 13.0793C2.8475 13.1104 2.79713 13.1269 2.74035 13.1491C2.69025 13.1687 2.64779 13.189 2.5949 13.1989C2.55152 13.207 2.51289 13.2022 2.46884 13.1997C2.42489 13.1973 2.38685 13.1948 2.34394 13.185C2.28231 13.1709 2.22857 13.1586 2.17132 13.1318C2.12177 13.1086 2.08624 13.0762 2.04221 13.0437C2.02496 13.0309 2.01131 13.0184 1.99654 13.0028C1.97848 12.9838 1.9539 12.9556 1.9228 12.9181L0.943289 11.2215C0.927466 11.1948 0.916926 11.1737 0.911671 11.1579C0.893194 11.1027 0.877669 11.0548 0.868282 10.9973C0.839447 10.8208 0.82254 10.6683 0.80265 10.4905C0.794937 10.4216 0.79047 10.3621 0.789449 10.2927C0.785955 10.0554 0.788312 9.85183 0.789755 9.61443C0.790016 9.57142 0.79282 9.53461 0.794319 9.49162C0.796767 9.42143 0.798412 9.36126 0.801033 9.29107C0.805534 9.17058 0.809797 9.06731 0.814666 8.94683C0.819976 8.81546 0.821667 8.70271 0.830117 8.57151C0.868229 7.97971 0.90444 7.47268 0.947691 6.88124C0.951553 6.82843 0.956739 6.78326 0.964716 6.73091C1.02489 6.33607 1.07447 5.99727 1.14238 5.60369C1.17144 5.43531 1.20515 5.29262 1.2417 5.12571C1.27075 4.9931 1.2981 4.87999 1.32978 4.74799C1.35444 4.64524 1.37646 4.55739 1.40267 4.45503C1.53158 3.95138 1.63515 3.51782 1.77298 3.01653C1.81807 2.85253 1.8709 2.71621 1.92508 2.55498C1.97286 2.41277 2.0156 2.29149 2.0643 2.14959C2.10184 2.04021 2.13454 1.94662 2.17148 1.83702C2.2127 1.71474 2.24911 1.61027 2.28763 1.48711C2.3144 1.40154 2.33104 1.32631 2.35798 1.24079C2.37307 1.19289 2.3859 1.15143 2.40766 1.10616C2.41867 1.08328 2.43493 1.06765 2.45078 1.04781C2.46628 1.02839 2.47884 1.01084 2.49716 0.994068C2.51367 0.978957 2.54232 0.978578 2.54954 0.957395C2.58744 0.846238 2.59471 0.744008 2.62139 0.629642C2.63761 0.560135 2.653 0.500892 2.67209 0.432119C2.68112 0.399581 2.68971 0.371863 2.7017 0.340298C2.72268 0.2851 2.73985 0.237245 2.76622 0.184409C2.78564 0.1455 2.80678 0.11443 2.83207 0.0790542C2.84174 0.065519 2.85181 0.0546655 2.86561 0.0453669C2.88978 0.0290759 2.9129 0.0189133 2.93938 0.00672672C2.94741 0.00303172 2.95495 0.000681804 2.96377 0.000187487C2.97655 -0.000528404 2.98764 0.000867833 3.00021 0.00331934C3.02454 0.00806773 3.04588 0.0114335 3.06888 0.0206979C3.11028 0.0373803 3.14468 0.0546523 3.18328 0.0770783C3.22704 0.102498 3.26654 0.122754 3.30368 0.157117C3.34868 0.198748 3.40751 0.263623 3.48017 0.351741L3.98017 1.21777C4.02481 1.27565 4.05481 1.32248 4.07018 1.35824C4.10422 1.43748 4.11749 1.51127 4.14183 1.594C4.17407 1.70354 4.19777 1.7986 4.23183 1.90758C4.24287 1.94289 4.26032 1.97038 4.27058 2.00592C4.33217 2.21935 4.38992 2.4013 4.43695 2.6184C4.46232 2.73548 4.47439 2.83857 4.47692 2.95834C4.48284 3.23916 4.48441 3.4808 4.46103 3.76071C4.43982 4.01456 4.40522 4.23135 4.3498 4.47999C4.30184 4.6952 4.25002 4.87866 4.1664 5.08268C4.03202 5.41056 3.89327 5.6818 3.72863 5.99559C3.47263 6.4835 3.22021 6.88393 2.96508 7.3723C2.68524 7.90797 2.47668 8.38298 2.20058 8.92059C1.97443 9.36093 1.76062 9.72783 1.53031 10.166C1.33816 10.5316 1.18948 10.8533 0.993619 11.2169C0.922177 11.3495 0.844437 11.4536 0.767085 11.5829C0.719126 11.663 0.686403 11.7367 0.635653 11.8151C0.596457 11.8757 0.554756 11.9219 0.510684 11.979C0.507691 11.9829 0.504523 11.9857 0.501215 11.9893C0.500927 11.9896 0.500522 11.9901 0.5 11.9907L0.5 11.9907Z"/>
<path id="shape12" transform="translate(60.8075397137293, 8.57189351033734)" fill="#1d0444" d="M0 2.63887L0.5 3.5049L0 2.63887C0.00167597 2.64428 0.00338662 2.6482 0.00513195 2.65064C0.0111912 2.65909 0.0161864 2.66694 0.0245556 2.67311C0.0630389 2.70147 0.0986689 2.722 0.138277 2.74876C0.169838 2.77009 0.194867 2.79154 0.227888 2.81053C0.311969 2.85888 0.382918 2.90353 0.472416 2.94091C0.577291 2.98471 0.673491 3.00514 0.78114 3.04159C0.867789 3.07094 0.939732 3.10312 1.02751 3.12889C1.17578 3.17242 1.3028 3.21243 1.45496 3.23943C1.65747 3.27536 1.83293 3.30383 2.03856 3.30827C2.20038 3.31175 2.33901 3.28846 2.49867 3.26192C2.69692 3.22897 2.86735 3.19758 3.05946 3.13856C3.25408 3.07877 3.41766 3.01418 3.59999 2.92358C3.74179 2.85311 3.85612 2.77712 3.98148 2.68039C4.08948 2.59705 4.17191 2.51249 4.2636 2.41149C4.35328 2.31272 4.42698 2.22389 4.49831 2.11114C4.59737 1.95456 4.67338 1.81401 4.7487 1.64472C4.78636 1.5601 4.80398 1.48102 4.81934 1.38967C4.83712 1.28401 4.84548 1.19156 4.84294 1.08444C4.84099 1.00256 4.83018 0.931712 4.80661 0.853273C4.77181 0.737408 4.72914 0.642018 4.67721 0.532752C4.65964 0.495806 4.62849 0.446361 4.58376 0.384417L5.08376 1.25044C5.02943 1.19258 4.98471 1.15178 4.94961 1.12804C4.84145 1.05488 4.74401 0.998496 4.62664 0.941269C4.56721 0.912295 4.51217 0.893892 4.44697 0.882967C4.35737 0.867953 4.27857 0.863038 4.18784 0.867746C4.01011 0.876966 3.85749 0.891142 3.68234 0.922637C3.55767 0.945052 3.44324 0.956912 3.33414 1.02125C3.27484 1.05621 3.26186 1.12718 3.23106 1.18874C3.20876 1.23331 3.20366 1.2774 3.18324 1.32286C3.16605 1.36112 3.14617 1.39143 3.12401 1.42704C3.09505 1.47362 3.06419 1.50977 3.03727 1.55755C3.00224 1.61974 2.98317 1.67884 2.94738 1.7406C2.88803 1.84302 2.83083 1.92701 2.76584 2.02595C2.63447 2.22594 2.51224 2.39111 2.3864 2.59462C2.25377 2.8091 2.15178 2.99996 2.02776 3.21954C1.99831 3.27169 1.97626 3.31814 1.94796 3.37093C1.90643 3.44838 1.87077 3.51473 1.82823 3.59163C1.79872 3.64499 1.77192 3.68988 1.74212 3.74307C1.69723 3.82319 1.65415 3.88954 1.61483 3.97254C1.52706 4.15781 1.45853 4.31976 1.37932 4.50885C1.3567 4.56283 1.34175 4.61088 1.32404 4.66666C1.28953 4.77538 1.25946 4.86851 1.23013 4.97874C1.19271 5.11942 1.16372 5.24087 1.13342 5.38325C1.10998 5.4934 1.09168 5.58835 1.07664 5.69995C1.05746 5.84226 1.04196 5.96472 1.03571 6.10819C1.02711 6.30584 1.02131 6.47603 1.03429 6.67344C1.04434 6.82643 1.07017 6.95622 1.10133 7.10633C1.12874 7.23843 1.1582 7.35076 1.2014 7.47856C1.23118 7.56669 1.26864 7.63778 1.30924 7.72147C1.31839 7.74032 1.33408 7.76579 1.35634 7.7979L0.377237 6.10205C0.400328 6.13365 0.417792 6.15817 0.429628 6.17561C0.506185 6.28837 0.568693 6.38715 0.646682 6.49893C0.679736 6.54631 0.705938 6.58931 0.746775 6.63017C0.782624 6.66604 0.8184 6.69286 0.863561 6.71593C0.961718 6.76608 1.05425 6.79083 1.15382 6.83812C1.20801 6.86386 1.24981 6.89471 1.30206 6.9242C1.34145 6.94642 1.37324 6.97009 1.41563 6.98587C1.48363 7.01117 1.54767 7.01513 1.61553 7.04085C1.67726 7.06424 1.72591 7.09426 1.78408 7.12548C1.82391 7.14686 1.85282 7.17576 1.89537 7.19104C1.94586 7.20916 1.99294 7.21149 2.04599 7.21951C2.16719 7.23783 2.27059 7.26161 2.39309 7.26625C2.46229 7.26887 2.52087 7.25134 2.58921 7.2401C2.62815 7.2337 2.66075 7.22421 2.69933 7.2159C2.74484 7.2061 2.78418 7.19918 2.82945 7.18834C2.96645 7.15553 3.08654 7.13617 3.22004 7.0912C3.29494 7.06597 3.35152 7.02595 3.42136 6.98897C3.46166 6.96764 3.49621 6.94917 3.53465 6.92464C3.60522 6.87959 3.66801 6.84361 3.73258 6.79033C3.8065 6.72933 3.85614 6.66186 3.92881 6.59938C4.04557 6.49899 4.21598 6.35989 4.44004 6.18207L4.94004 7.04809C4.71598 7.22591 4.54557 7.36502 4.42881 7.46541C4.35614 7.52788 4.3065 7.59536 4.23258 7.65635C4.16801 7.70964 4.10522 7.74562 4.03465 7.79066C3.99621 7.81519 3.96166 7.83366 3.92136 7.855C3.85152 7.89197 3.79494 7.932 3.72004 7.95722C3.58654 8.00219 3.46645 8.02156 3.32945 8.05437C3.28418 8.06521 3.24484 8.07212 3.19933 8.08193C3.16075 8.09024 3.12815 8.09973 3.08921 8.10613C3.02087 8.11736 2.96229 8.1349 2.89309 8.13228C2.77059 8.12763 2.66719 8.10385 2.54599 8.08554C2.49294 8.07752 2.44898 8.05493 2.39537 8.05706C2.37304 8.05795 2.36228 8.08227 2.34303 8.09362C2.31177 8.11207 2.2869 8.13487 2.25131 8.14206C2.19432 8.15356 2.14277 8.13732 2.08524 8.14567C2.06178 8.14907 2.04595 8.16557 2.02421 8.175C1.99651 8.187 1.9742 8.2085 1.94406 8.20685C1.85549 8.202 1.78181 8.17775 1.69557 8.15701C1.66493 8.14964 1.63841 8.14188 1.61079 8.12669C1.59061 8.11559 1.57567 8.10129 1.56138 8.08323C1.50467 8.0116 1.46205 7.94567 1.40874 7.87148C1.39644 7.85436 1.37897 7.82983 1.35634 7.7979L0.377237 6.10205C0.354983 6.06994 0.339283 6.04446 0.330139 6.02562C0.289549 5.94195 0.25211 5.87088 0.222341 5.78279C0.179163 5.65502 0.149706 5.54271 0.122325 5.41065C0.091229 5.26067 0.0654819 5.131 0.055513 4.97815C0.0426505 4.78094 0.04861 4.61094 0.0572884 4.4135C0.0635929 4.27007 0.0790863 4.14764 0.0982721 4.00536C0.113322 3.89375 0.131586 3.79879 0.155032 3.68864C0.185334 3.54627 0.214352 3.42484 0.251776 3.28418C0.281104 3.17394 0.311139 3.0808 0.345675 2.97208C0.363385 2.91633 0.378409 2.86833 0.401018 2.81439C0.480258 2.6253 0.548729 2.46333 0.636525 2.27806C0.675847 2.19509 0.718997 2.12881 0.763876 2.0487C0.793688 1.99549 0.820422 1.95054 0.849926 1.89716C0.892441 1.82024 0.928042 1.75384 0.969635 1.67642C0.997946 1.62372 1.0202 1.57746 1.04965 1.52539C1.17376 1.30589 1.27204 1.11272 1.40834 0.900574C1.53549 0.702682 1.64958 0.535116 1.80136 0.35542C1.87015 0.273976 1.94355 0.215058 2.03443 0.159323C2.08641 0.127445 2.14191 0.122807 2.20152 0.110004C2.25364 0.0988101 2.29944 0.0943303 2.35264 0.0909825C2.39473 0.0883337 2.43127 0.0877258 2.47313 0.0929129C2.52393 0.0992085 2.56568 0.114928 2.61613 0.123635C2.6921 0.136749 2.75757 0.164287 2.83414 0.155223C2.95992 0.140334 3.05767 0.079027 3.18234 0.0566113C3.35749 0.0251166 3.51011 0.0109407 3.68784 0.00172016C3.77857 -0.00298703 3.85737 0.001928 3.94697 0.0169415C4.01217 0.0278666 4.06721 0.0462698 4.12664 0.0752434C4.24401 0.132471 4.34145 0.188856 4.44961 0.262013C4.48471 0.285752 4.52943 0.326553 4.58376 0.384417L5.08376 1.25044C5.12849 1.31239 5.15964 1.36183 5.17721 1.39878C5.22914 1.50804 5.27181 1.60343 5.30661 1.7193C5.33018 1.79774 5.34099 1.86859 5.34294 1.95047C5.34548 2.05759 5.33712 2.15003 5.31934 2.2557C5.30398 2.34704 5.28636 2.42612 5.2487 2.51075C5.17338 2.68003 5.09737 2.82059 4.99831 2.97717C4.92698 3.08991 4.85328 3.17875 4.7636 3.27752C4.67191 3.37851 4.58948 3.46308 4.48148 3.54641C4.35612 3.64315 4.24179 3.71914 4.09999 3.7896C3.91766 3.88021 3.75408 3.94479 3.55946 4.00459C3.36735 4.0636 3.19692 4.09499 2.99867 4.12795C2.83901 4.15449 2.70038 4.17778 2.53856 4.17429C2.33293 4.16986 2.15747 4.14138 1.95496 4.10545C1.8028 4.07846 1.67578 4.03845 1.52751 3.99492C1.43973 3.96915 1.36779 3.93696 1.28114 3.90762C1.17349 3.87116 1.07729 3.85074 0.972416 3.80694C0.882917 3.76956 0.811969 3.7249 0.727888 3.67655C0.694867 3.65756 0.669838 3.63612 0.638277 3.61479C0.598669 3.58802 0.563039 3.5675 0.524555 3.53914C0.516186 3.53297 0.511191 3.52511 0.505132 3.51666C0.503387 3.51423 0.501676 3.51031 0.5 3.5049L0 2.63887L0.5 3.5049L0.5 3.5049Z"/>
<path id="shape13" transform="translate(65.6908989329766, 4.37664302754703)" fill="#1d0444" d="M1.82983e-05 10.4634C-6.09942e-06 10.4627 -6.09942e-06 10.4621 1.82983e-05 10.4617C0.000641204 10.452 -0.000673277 10.4433 0.00190236 10.4339C0.00787793 10.412 0.0129186 10.3927 0.0242427 10.373C0.0428856 10.3407 0.059879 10.3125 0.086767 10.2866C0.190287 10.1869 0.294162 10.1177 0.395316 10.0155C0.568711 9.84043 0.711404 9.68416 0.870092 9.49564C1.00997 9.32946 1.11462 9.1748 1.24758 9.00303C1.37133 8.84315 1.4854 8.71216 1.60354 8.54809C2.12185 7.82824 2.55728 7.20488 3.06567 6.47799C3.13555 6.37807 3.18819 6.28754 3.25563 6.18595C3.43652 5.91346 3.60067 5.68584 3.77517 5.40922C4.11849 4.86502 4.43164 4.40869 4.73484 3.84116C4.95972 3.42023 5.11144 3.03786 5.2805 2.59157C5.36798 2.36063 5.41283 2.15197 5.46608 1.91083C5.49816 1.76556 5.52042 1.63845 5.52382 1.48972C5.52802 1.30615 5.50673 1.14898 5.48767 0.966358C5.47656 0.859954 5.45806 0.769833 5.4377 0.664805C5.42789 0.614201 5.41402 0.572053 5.40155 0.522039C5.38887 0.471207 5.3805 0.426973 5.36584 0.376677C5.3453 0.30622 5.32947 0.244917 5.30104 0.177257C5.29022 0.151506 5.26955 0.117374 5.23903 0.0748623L5.73903 0.940888C5.72016 0.918117 5.7047 0.901592 5.69264 0.891312C5.68214 0.882362 5.67138 0.876331 5.65827 0.872021C5.64425 0.867407 5.63121 0.86528 5.61648 0.86626C5.59051 0.867988 5.56763 0.870316 5.54333 0.879669C5.47426 0.906265 5.41572 0.931829 5.35134 0.968348C5.29515 1.00022 5.242 1.02503 5.20022 1.07429C5.16684 1.11363 5.16079 1.16188 5.14539 1.21113C5.13464 1.2455 5.1297 1.27635 5.12583 1.31215C5.12157 1.35151 5.12953 1.38629 5.12223 1.42519C5.11468 1.46549 5.10114 1.49869 5.08388 1.53589C5.05365 1.60105 5.01721 1.65165 4.98693 1.71679C4.9577 1.77968 4.93869 1.83623 4.91412 1.90108C4.8857 1.97609 4.86073 2.04022 4.83554 2.11637C4.80514 2.20824 4.78602 2.28919 4.75534 2.38097C4.71622 2.49802 4.67997 2.59745 4.63618 2.71283C4.54626 2.94977 4.45527 3.1477 4.37333 3.38752C4.20886 3.86886 4.08333 4.28658 3.93246 4.77236C3.9045 4.8624 3.8861 4.94121 3.86246 5.03248C3.82483 5.17777 3.79399 5.30266 3.75743 5.44822C3.74187 5.5102 3.72878 5.56339 3.71354 5.62546C3.68291 5.75023 3.6557 5.85696 3.62638 5.98204C3.58138 6.17401 3.54376 6.33879 3.50118 6.53131C3.48074 6.62378 3.46539 6.70351 3.44634 6.79628C3.43346 6.85903 3.42394 6.91314 3.40996 6.97565C3.27923 7.55992 3.16683 8.06064 3.03288 8.64418C3.017 8.71338 2.99943 8.77172 2.9819 8.84051C2.94532 8.98406 2.91372 9.10704 2.8783 9.25088C2.85553 9.34334 2.83555 9.42251 2.81566 9.51563C2.78936 9.6388 2.76912 9.74486 2.74637 9.86873C2.72888 9.96394 2.71656 10.046 2.70072 10.1415C2.69253 10.1909 2.68581 10.2333 2.67773 10.2826C2.66959 10.3324 2.66199 10.3749 2.65438 10.4247C2.63056 10.5805 2.61311 10.7145 2.58792 10.8701C2.54842 11.1143 2.51084 11.3229 2.46956 11.5668C2.46356 11.6022 2.45852 11.6326 2.45284 11.668C2.44397 11.7234 2.43656 11.7709 2.428 11.8263C2.41932 11.8825 2.41053 11.9305 2.40356 11.987C2.3711 12.2501 2.36919 12.4798 2.31537 12.7394C2.31044 12.7632 2.26456 12.7618 2.24626 12.7458C2.21717 12.7204 2.18859 12.6732 2.16052 12.6043L1.52225 11.4988C1.5559 11.5594 1.58603 11.6024 1.61263 11.6277C1.621 11.6357 1.63485 11.622 1.6422 11.6131C1.66076 11.5905 1.68365 11.5557 1.71086 11.5085L2.21086 12.3746C2.18365 12.4217 2.16076 12.4566 2.1422 12.4791C2.13485 12.488 2.11096 12.4823 2.11263 12.4937C2.1167 12.5216 2.13266 12.5584 2.16052 12.6043L1.52225 11.4988C1.46924 11.4165 1.43283 11.3511 1.41302 11.3026C1.37729 11.2151 1.33528 11.1382 1.33637 11.0437C1.33941 10.7786 1.39213 10.5545 1.42461 10.2914C1.43158 10.235 1.44041 10.187 1.44908 10.1308C1.45765 10.0753 1.46501 10.0278 1.47387 9.9724C1.47954 9.93693 1.48458 9.90656 1.49059 9.87114C1.53192 9.6274 1.56953 9.41885 1.60914 9.17483C1.63437 9.01935 1.65194 8.88545 1.67582 8.72975C1.68345 8.67995 1.69103 8.63743 1.69916 8.58771C1.70724 8.53831 1.71394 8.49593 1.72212 8.44655C1.73795 8.35104 1.75028 8.26895 1.76776 8.17373C1.79051 8.04986 1.81077 7.94381 1.83706 7.82065C1.85694 7.72751 1.8769 7.64831 1.89966 7.55583C1.93507 7.412 1.96669 7.28902 2.00327 7.14548C2.0208 7.07667 2.03834 7.01832 2.05425 6.94913C2.18833 6.36587 2.30093 5.8654 2.43179 5.28142C2.4458 5.2189 2.45528 5.16477 2.46816 5.10201C2.4872 5.00924 2.50253 4.9295 2.52299 4.83703C2.56557 4.64454 2.60325 4.47981 2.64826 4.28788C2.67759 4.16279 2.70481 4.05606 2.7354 3.93127C2.75063 3.86914 2.76362 3.81587 2.77918 3.75383C2.8157 3.60826 2.84656 3.48337 2.8842 3.33808C2.90784 3.24684 2.92629 3.16806 2.95425 3.07804C3.10515 2.59231 3.22635 2.17311 3.39518 1.69331C3.47745 1.45951 3.56746 1.26627 3.671 1.04108C3.71706 0.940885 3.76589 0.859474 3.82215 0.764628C3.86241 0.696754 3.89944 0.639894 3.94653 0.576564C3.98546 0.524192 4.02081 0.480278 4.06747 0.434656C4.10671 0.396291 4.14903 0.373423 4.19076 0.337779C4.23831 0.297157 4.27023 0.251437 4.32238 0.216913C4.34906 0.199248 4.37846 0.191513 4.41045 0.192343C4.44209 0.193165 4.46517 0.214634 4.49609 0.221421C4.52439 0.227632 4.54958 0.231094 4.57849 0.22923C4.62163 0.226449 4.66102 0.226494 4.70022 0.208262C4.75879 0.18102 4.79515 0.134192 4.85134 0.102323C4.91572 0.0658034 4.97426 0.0402398 5.04334 0.0136431C5.06763 0.00429069 5.09051 0.00196251 5.11648 0.000234397C5.13121 -0.000745858 5.14425 0.00138159 5.15827 0.00599518C5.17138 0.0103057 5.18214 0.0163362 5.19264 0.0252868C5.2047 0.0355663 5.22016 0.0520915 5.23903 0.0748623L5.73903 0.940888C5.76955 0.9834 5.79022 1.01753 5.80104 1.04328C5.82947 1.11094 5.8453 1.17225 5.86584 1.2427C5.8805 1.293 5.88887 1.33723 5.90155 1.38806C5.91402 1.43808 5.92789 1.48023 5.9377 1.53083C5.95806 1.63586 5.97656 1.72598 5.98767 1.83238C6.00673 2.015 6.02802 2.17218 6.02382 2.35575C6.02042 2.50447 5.99816 2.63159 5.96608 2.77685C5.91283 3.018 5.86798 3.22665 5.7805 3.4576C5.61144 3.90388 5.45972 4.28625 5.23484 4.70718C4.93164 5.27472 4.61849 5.73104 4.27517 6.27525C4.10067 6.55187 3.93652 6.77949 3.75563 7.05197C3.68819 7.15356 3.63555 7.24409 3.56567 7.34401C3.05728 8.07091 2.62185 8.69426 2.10354 9.41412C1.9854 9.57819 1.87133 9.70918 1.74758 9.86906C1.61462 10.0408 1.50997 10.1955 1.37009 10.3617C1.2114 10.5502 1.06871 10.7065 0.895315 10.8815C0.794162 10.9837 0.690287 11.0529 0.586767 11.1526C0.559879 11.1785 0.542886 11.2067 0.524243 11.2391C0.512918 11.2587 0.507878 11.278 0.501902 11.2999C0.499327 11.3093 0.500641 11.318 0.500018 11.3278C0.499994 11.3282 0.499994 11.3287 0.500018 11.3294L0.500018 11.3294Z"/>
<path id="shape14" transform="translate(68.6354670809639, 9.24851166281757)" fill="#1d0444" d="M4.54613 1.24297L5.04613 2.10899L4.54613 1.24297C4.54759 1.23996 4.54879 1.2377 4.54974 1.23618C4.56013 1.21958 4.57028 1.20611 4.57989 1.18905C4.5876 1.17536 4.59409 1.16337 4.59913 1.14848C4.60537 1.13005 4.60688 1.11316 4.61194 1.09437C4.62003 1.06427 4.6301 1.0393 4.63669 1.00884C4.6459 0.966194 4.65582 0.929462 4.65701 0.885847C4.65876 0.821701 4.65451 0.766363 4.64504 0.702896C4.63358 0.626101 4.62076 0.560274 4.59737 0.486234C4.58779 0.455894 4.56796 0.414999 4.53787 0.363547L5.03787 1.22957C5.0087 1.18617 4.98463 1.15415 4.96563 1.13352C4.94867 1.1151 4.93044 1.10274 4.90907 1.0897C4.88832 1.07703 4.87013 1.06377 4.84604 1.06051C4.82817 1.05809 4.80349 1.05787 4.79646 1.07447C4.78515 1.10114 4.80448 1.12781 4.80524 1.15676C4.80586 1.1806 4.80987 1.20284 4.8004 1.22472C4.7877 1.25406 4.76997 1.27763 4.74453 1.29699C4.67961 1.34642 4.61417 1.37433 4.54567 1.41866C4.45588 1.47678 4.37935 1.52738 4.29237 1.58964C4.16432 1.68128 4.05386 1.75918 3.93146 1.85825C3.77919 1.98151 3.64905 2.08835 3.50812 2.22445C3.36202 2.36554 3.24884 2.49846 3.11257 2.64908C3.0583 2.70906 3.02023 2.76796 2.96388 2.82599C2.59951 3.20125 2.27898 3.51482 1.91099 3.88653C1.85303 3.94508 1.80323 3.99517 1.7469 4.05528C1.65024 4.15843 1.57238 4.25152 1.47391 4.35293C1.43244 4.39563 1.38961 4.42462 1.34745 4.46663C1.26095 4.55284 1.19185 4.63165 1.10655 4.71904C1.06937 4.75713 1.03002 4.78291 0.997556 4.82509C0.944156 4.89446 0.915211 4.9657 0.862748 5.03578C0.836173 5.07129 0.805681 5.09526 0.772936 5.12516C0.759817 5.13715 0.749676 5.15708 0.73201 5.15519C0.714794 5.15336 0.710552 5.1312 0.700108 5.11739C0.693862 5.10913 0.688613 5.10177 0.684439 5.0923C0.679298 5.08063 0.673265 5.06344 0.666339 5.04073L0.0663192 4.00146C0.0897489 4.01181 0.107474 4.01507 0.119494 4.01124C0.173666 3.99398 0.215554 3.96699 0.264629 3.93829C0.377213 3.87244 0.468888 3.80802 0.580971 3.74132C0.605606 3.72666 0.62786 3.71559 0.654893 3.70605C0.694012 3.69224 0.728564 3.683 0.769245 3.67489C0.796767 3.6694 0.821007 3.66736 0.849072 3.66731C0.903367 3.66722 0.95025 3.66707 1.00404 3.6745C1.04289 3.67986 1.07643 3.68767 1.11226 3.70364C1.15736 3.72375 1.19225 3.74873 1.23302 3.77658C1.25315 3.79033 1.26866 3.80472 1.28573 3.82212C1.3265 3.86367 1.36212 3.89898 1.39805 3.94478C1.41861 3.97098 1.44455 4.01086 1.47587 4.06443L2.05621 5.0696C2.10154 5.1572 2.13518 5.22516 2.15711 5.27351C2.18257 5.32962 2.2052 5.3778 2.22282 5.43685C2.24483 5.51059 2.25989 5.57532 2.26997 5.65162C2.28812 5.78911 2.30118 5.90779 2.30333 6.04646C2.30698 6.28221 2.29158 6.48418 2.28651 6.7199C2.28504 6.7886 2.28381 6.84752 2.28462 6.91623C2.28563 7.0019 2.28418 7.07558 2.29171 7.16092C2.29707 7.22163 2.3038 7.27414 2.32136 7.33249C2.3274 7.35256 2.34251 7.37842 2.36669 7.41005L1.77348 6.38257C1.81344 6.42827 1.84587 6.46162 1.87077 6.48261C1.91083 6.51637 1.9443 6.55044 1.99362 6.56812C2.08007 6.59912 2.15922 6.6175 2.25105 6.61894C2.47156 6.6224 2.66176 6.61322 2.88007 6.58201C3.08105 6.55327 3.25414 6.51882 3.44452 6.44831C3.64074 6.37564 3.79948 6.28715 3.97668 6.17587C4.15294 6.06518 4.39503 5.89256 4.70295 5.65801L5.20295 6.52404C4.89503 6.75859 4.65294 6.93121 4.47668 7.0419C4.29948 7.15318 4.14074 7.24167 3.94452 7.31434C3.75414 7.38485 3.58105 7.4193 3.38007 7.44803C3.16176 7.47924 2.97158 7.48699 2.75105 7.48497C2.66074 7.48414 2.58619 7.45397 2.49697 7.43994C2.47002 7.43571 2.44595 7.43891 2.41937 7.43281C2.40632 7.42981 2.38876 7.42223 2.36669 7.41005L1.77348 6.38257C1.72682 6.31446 1.69519 6.25999 1.67857 6.21914C1.64558 6.13805 1.62626 6.06469 1.60923 5.97882C1.58886 5.87612 1.57967 5.78642 1.57204 5.682C1.567 5.61296 1.5711 5.55342 1.5731 5.48423C1.57978 5.25266 1.59397 5.05441 1.59682 4.82276C1.59836 4.69795 1.59371 4.59086 1.58562 4.4663C1.58166 4.40523 1.57375 4.35313 1.56241 4.29299C1.55581 4.25798 1.54711 4.22842 1.53449 4.1951C1.52266 4.16385 1.50312 4.12029 1.47587 4.06443L2.05621 5.0696C2.0147 4.99835 1.98088 4.94482 1.95476 4.90902C1.90953 4.84703 1.8666 4.79691 1.81548 4.73968C1.7992 4.72144 1.7828 4.70783 1.76267 4.69395C1.72152 4.66557 1.68633 4.64019 1.64092 4.6193C1.60456 4.60258 1.57071 4.59328 1.53112 4.58744C1.4774 4.57951 1.43044 4.58013 1.37614 4.58022C1.34808 4.58027 1.3238 4.58211 1.29633 4.58782C1.25585 4.59623 1.22183 4.6068 1.1828 4.6204C1.15565 4.62986 1.13227 4.63871 1.10766 4.65357C0.995948 4.72104 0.898146 4.77654 0.794013 4.85521C0.746742 4.89091 0.711395 4.92947 0.67781 4.97827C0.669411 4.99048 0.665587 5.0113 0.666339 5.04073L0.0663192 4.00146C0.0511801 3.98605 0.040153 3.97369 0.033238 3.96438C0.0270282 3.95602 0.023382 3.94768 0.0192585 3.93812C0.0117278 3.92066 0.000112633 3.90633 1.334e-06 3.88732C-0.000144592 3.86239 0.0117162 3.84252 0.0185586 3.81854C0.0348365 3.76151 0.0440962 3.71097 0.0660564 3.65587C0.10113 3.56787 0.141265 3.49683 0.181051 3.41086C0.20771 3.35325 0.221626 3.29909 0.255895 3.24566C0.32473 3.13834 0.397576 3.05593 0.4741 2.95395C0.51205 2.90337 0.541738 2.85771 0.582963 2.80977C0.675231 2.70246 0.758692 2.6143 0.855165 2.51075C0.911346 2.45045 0.960861 2.40003 1.01907 2.34168C1.38802 1.97186 1.70559 1.6562 2.07559 1.28742C2.13125 1.23194 2.17755 1.18289 2.23524 1.12951C2.38098 0.994648 2.5031 0.875568 2.65669 0.749714C2.80649 0.626959 2.94016 0.527756 3.10109 0.42C3.23105 0.33298 3.34777 0.266032 3.48661 0.194017C3.58202 0.14453 3.66848 0.111404 3.76906 0.0735266C3.84726 0.0440776 3.91432 0.0152562 3.9968 0.00188578C4.03444 -0.00421581 4.06887 0.00526606 4.10437 0.0191731C4.1347 0.0310517 4.15497 0.052584 4.17987 0.0735874C4.21161 0.100371 4.23224 0.130961 4.26583 0.155396C4.29108 0.173768 4.31785 0.181046 4.34604 0.194483C4.36799 0.204943 4.38832 0.211002 4.40907 0.22367C4.43044 0.236719 4.44867 0.249071 4.46563 0.267494C4.48463 0.288123 4.5087 0.320141 4.53787 0.363547L5.03787 1.22957C5.06796 1.28102 5.08779 1.32192 5.09737 1.35226C5.12076 1.4263 5.13358 1.49213 5.14504 1.56892C5.15451 1.63239 5.15876 1.68773 5.15701 1.75187C5.15582 1.79549 5.1459 1.83222 5.13669 1.87487C5.1301 1.90532 5.12003 1.9303 5.11194 1.96039C5.10688 1.97919 5.10537 1.99607 5.09913 2.01451C5.09409 2.02939 5.0876 2.04138 5.07989 2.05507C5.07028 2.07214 5.06013 2.08561 5.04974 2.10221C5.04879 2.10373 5.04759 2.10599 5.04613 2.10899L4.54613 1.24297L5.04613 2.10899L5.04613 2.10899Z"/>
<path id="shape15" transform="translate(82.7220149266018, 2.50211485763957)" fill="#1d0444" d="M0.502871 15.8441C0.502649 15.8435 0.502548 15.8431 0.502567 15.8427C0.506969 15.7707 0.501428 15.7078 0.515528 15.637C0.543385 15.4973 0.571767 15.3774 0.621903 15.244C0.810542 14.7421 1.01876 14.3298 1.19692 13.8241C1.34202 13.4122 1.47272 13.0565 1.54431 12.6257C1.61234 12.2164 1.62568 11.8548 1.59295 11.4411C1.56128 11.0408 1.49155 10.6973 1.36166 10.3174C1.16279 9.7357 0.875298 9.28309 0.658514 8.70781C0.428357 8.09704 0.223743 7.57099 0.0862818 6.93293C-0.00355921 6.51591 -0.0146074 6.14188 0.0140222 5.71626C0.0413291 5.3103 0.10786 4.96004 0.244761 4.57689C0.379532 4.1997 0.555033 3.89643 0.782138 3.5665C1.02981 3.20668 1.30219 2.94367 1.59319 2.6179C1.69946 2.49893 1.80603 2.41173 1.91647 2.29663C2.18522 2.01654 2.39818 1.75953 2.67647 1.48893C2.84619 1.3239 2.9921 1.17686 3.19444 1.05399C3.53618 0.846494 3.84186 0.680518 4.22028 0.551538C4.76316 0.366505 5.24557 0.252052 5.81198 0.161842C6.45622 0.0592367 7.01702 0.0237541 7.66902 0.00227139C8.08194 -0.0113336 8.43537 0.0397026 8.84792 0.0618125C8.85881 0.062396 8.86828 0.0636442 8.87862 0.0670981C8.88049 0.067724 8.88222 0.0699568 8.8838 0.0737963L9.3838 0.939822C9.25471 0.971105 9.15605 0.997401 9.08783 1.01871C8.90805 1.07487 8.74969 1.11366 8.57816 1.19147C8.48074 1.23567 8.40391 1.2909 8.32606 1.36427C8.24861 1.43725 8.18932 1.51039 8.13981 1.60459C8.08223 1.71413 8.0416 1.8162 8.02412 1.93871C7.9957 2.1378 7.98728 2.31333 8.01014 2.51314C8.0319 2.70332 8.07296 2.86669 8.15031 3.04179C8.23649 3.23691 8.3851 3.50294 8.59615 3.83987L8.09615 2.97384C8.32012 3.2569 8.48758 3.47814 8.59854 3.63756C8.65798 3.72296 8.73359 3.85095 8.82537 4.02152L9.32537 4.88754C9.35697 4.99445 9.37276 5.07749 9.37272 5.13665C9.37263 5.26413 9.36524 5.37677 9.32496 5.49772C9.26559 5.67599 9.15878 5.8057 9.09147 5.98113C9.03229 6.13539 8.97828 6.27124 8.965 6.43593C8.9492 6.63182 8.95998 6.8055 9.00966 6.99565C9.146 7.51754 9.34432 7.94053 9.49351 8.4589C9.56352 8.70217 9.60992 8.91631 9.6349 9.16822C9.64633 9.28346 9.62814 9.38547 9.59644 9.49685C9.56396 9.61099 9.52668 9.71079 9.45382 9.80447C9.32463 9.9706 9.20479 10.1151 9.02749 10.2285C8.67903 10.4513 8.36012 10.6195 7.96899 10.754C7.53163 10.9044 7.13857 10.9932 6.67809 11.0364C6.24377 11.0772 5.86666 11.0347 5.43249 10.9923C5.2806 10.9774 5.15407 10.9317 5.01288 10.8737C4.9291 10.8393 4.86607 10.7898 4.7968 10.7314C4.77436 10.7125 4.74975 10.6786 4.72299 10.6297L4.22299 9.76364C4.19186 9.66462 4.16736 9.58863 4.1495 9.53568C4.14737 9.52938 4.14334 9.5208 4.13739 9.50992L4.63739 10.3759C4.63077 10.3682 4.625 10.3634 4.62007 10.3617C4.61182 10.3587 4.60322 10.3576 4.59502 10.3607C4.56702 10.3714 4.54179 10.3808 4.51903 10.4003C4.42998 10.4767 4.35049 10.541 4.27768 10.633C4.06598 10.9005 3.8854 11.1325 3.70866 11.4243C3.53133 11.7171 3.39799 11.9808 3.26916 12.2979C3.14281 12.6089 3.08742 12.8943 2.98195 13.213C2.94647 13.3202 2.90831 13.4093 2.86656 13.5143C2.86432 13.5199 2.85478 13.5341 2.85646 13.5283C2.88277 13.4371 2.92221 13.3074 2.97479 13.1391L2.47479 12.273C2.73035 11.2623 2.94872 10.4916 3.1299 9.96099C3.49273 8.89832 3.8375 7.99766 4.28605 6.96823C4.58972 6.2713 4.93296 5.71331 5.27628 5.03502C5.40049 4.78962 5.49444 4.573 5.62182 4.32922C5.67568 4.22614 5.75865 4.0822 5.87072 3.89738L6.37072 4.7634C6.25865 4.94822 6.17568 5.09217 6.12182 5.19525C5.99444 5.43902 5.90049 5.65565 5.77628 5.90105C5.43296 6.57933 5.08972 7.13732 4.78605 7.83426C4.3375 8.86369 3.99273 9.76434 3.6299 10.827C3.44872 11.3577 3.23035 12.1283 2.97479 13.1391L2.47479 12.273C2.42221 12.4413 2.38277 12.5711 2.35646 12.6623C2.35478 12.6681 2.36432 12.6539 2.36656 12.6482C2.40831 12.5433 2.44647 12.4541 2.48195 12.347C2.58743 12.0283 2.64281 11.7429 2.76916 11.4319C2.89799 11.1148 3.03133 10.851 3.20866 10.5583C3.3854 10.2665 3.56598 10.0344 3.77768 9.76694C3.85049 9.67493 3.92998 9.61066 4.01903 9.53426C4.04179 9.51474 4.06702 9.5054 4.09502 9.49469C4.10322 9.49156 4.11182 9.49266 4.12007 9.49563C4.125 9.4974 4.13077 9.50216 4.13739 9.50992L4.63739 10.3759C4.64334 10.3868 4.64737 10.3954 4.6495 10.4017C4.66736 10.4547 4.69186 10.5306 4.72299 10.6297L4.22299 9.76364C4.24975 9.81259 4.27436 9.84652 4.2968 9.86541C4.36607 9.92373 4.4291 9.97332 4.51288 10.0077C4.65407 10.0656 4.7806 10.1114 4.93249 10.1263C5.36666 10.1687 5.74377 10.2112 6.17809 10.1704C6.63857 10.1271 7.03163 10.0384 7.46899 9.88795C7.86012 9.75345 8.17903 9.58529 8.52749 9.36246C8.70479 9.24908 8.82463 9.10458 8.95382 8.93844C9.02668 8.84476 9.06396 8.74497 9.09644 8.63082C9.12814 8.51944 9.14633 8.41744 9.1349 8.3022C9.10992 8.05029 9.06352 7.83615 8.99351 7.59287C8.84432 7.0745 8.646 6.65152 8.50966 6.12962C8.45998 5.93948 8.4492 5.76579 8.465 5.5699C8.47828 5.40522 8.53229 5.26936 8.59147 5.11511C8.65878 4.93968 8.76559 4.80996 8.82496 4.63169C8.86524 4.51075 8.87263 4.3981 8.87272 4.27063C8.87276 4.21146 8.85697 4.12842 8.82537 4.02152L9.32537 4.88754C9.23359 4.71697 9.15798 4.58899 9.09854 4.50358C8.98758 4.34417 8.82012 4.12293 8.59615 3.83987L8.09615 2.97384C7.8851 2.63691 7.73649 2.37089 7.65031 2.17577C7.57296 2.00067 7.5319 1.8373 7.51014 1.64712C7.48728 1.44731 7.4957 1.27178 7.52412 1.07268C7.5416 0.95017 7.58223 0.848106 7.63981 0.738562C7.68932 0.644368 7.74861 0.571228 7.82606 0.498244C7.90391 0.424876 7.98074 0.36964 8.07816 0.325449C8.24969 0.247638 8.40805 0.208844 8.58783 0.152685C8.65605 0.131376 8.75471 0.105079 8.8838 0.0737963L9.3838 0.939822C9.38222 0.935982 9.38049 0.93375 9.37862 0.933124C9.36828 0.92967 9.35881 0.928421 9.34792 0.927838C8.93537 0.905728 8.58194 0.854692 8.16902 0.868297C7.51702 0.88978 6.95622 0.925262 6.31198 1.02787C5.74557 1.11808 5.26316 1.23253 4.72028 1.41756C4.34186 1.54654 4.03617 1.71252 3.69444 1.92002C3.4921 2.04288 3.34619 2.18993 3.17647 2.35495C2.89818 2.62555 2.68522 2.88257 2.41647 3.16265C2.30603 3.27776 2.19946 3.36496 2.09319 3.48393C1.80219 3.8097 1.52981 4.0727 1.28214 4.43252C1.05503 4.76246 0.879532 5.06573 0.744761 5.44291C0.60786 5.82607 0.541329 6.17633 0.514022 6.58229C0.485393 7.00791 0.496441 7.38194 0.586282 7.79895C0.723743 8.43701 0.928357 8.96306 1.15851 9.57384C1.3753 10.1491 1.66279 10.6017 1.86166 11.1834C1.99155 11.5634 2.06128 11.9068 2.09295 12.3071C2.12568 12.7208 2.11234 13.0824 2.04431 13.4917C1.97272 13.9225 1.84202 14.2782 1.69692 14.6901C1.51876 15.1958 1.31054 15.6081 1.1219 16.11C1.07177 16.2434 1.04338 16.3633 1.01553 16.5031C1.00143 16.5738 1.00697 16.6368 1.00257 16.7088C1.00255 16.7091 1.00265 16.7095 1.00287 16.7101L1.00287 16.7101Z"/>
</svg>
